<?xml version="1.0" standalone="no"?>
<!DOCTYPE svg PUBLIC "-//W3C//DTD SVG 1.1//EN" "http://www.w3.org/Graphics/SVG/1.1/DTD/svg11.dtd" >
<!--
2013-9-30: Created.
-->
<svg>
<metadata>
Created by iconfont
</metadata>
<defs>

<font id="iconfont" horiz-adv-x="1024" >
  <font-face
    font-family="iconfont"
    font-weight="500"
    font-stretch="normal"
    units-per-em="1024"
    ascent="896"
    descent="-128"
  />
    <missing-glyph />
    
    <glyph glyph-name="access-point" unicode="&#58881;" d="M210.346667 685.653333A425.344 425.344 0 0 1 85.333333 384c0-117.76 47.786667-224.426667 125.013334-301.653333l60.16 60.16A338.688 338.688 0 0 0 170.666667 384c0 94.293333 37.973333 180.053333 99.84 241.493333L210.346667 685.653333m603.306666 0l-60.16-60.16A339.413333 339.413333 0 0 0 853.333333 384c0-94.72-37.973333-180.053333-99.84-241.493333l60.16-60.16A425.344 425.344 0 0 1 938.666667 384c0 117.76-47.786667 224.426667-125.013334 301.653333M331.093333 564.906667A255.146667 255.146667 0 0 1 256 384c0-70.4 28.586667-134.4 75.093333-180.906667l60.16 60.16A170.24 170.24 0 0 0 341.333333 384c0 47.36 19.2 90.026667 49.92 120.746667L331.093333 564.906667m361.813334 0l-60.16-60.16A170.24 170.24 0 0 0 682.666667 384c0-47.36-19.2-90.026667-49.92-120.746667l60.16-60.16A255.146667 255.146667 0 0 1 768 384c0 70.4-28.586667 134.4-75.093333 180.906667M512 469.333333a85.333333 85.333333 0 0 1-85.333333-85.333333 85.333333 85.333333 0 0 1 85.333333-85.333333 85.333333 85.333333 0 0 1 85.333333 85.333333 85.333333 85.333333 0 0 1-85.333333 85.333333z"  horiz-adv-x="1024" />

    
    <glyph glyph-name="account-box-outline" unicode="&#58882;" d="M810.666667 85.333333H213.333333V682.666667h597.333334m0 85.333333H213.333333a85.333333 85.333333 0 0 1-85.333333-85.333333v-597.333334a85.333333 85.333333 0 0 1 85.333333-85.333333h597.333334a85.333333 85.333333 0 0 1 85.333333 85.333333V682.666667a85.333333 85.333333 0 0 1-85.333333 85.333333m-106.666667-565.333333c0 64-128 96-192 96s-192-32-192-96V170.666667h384M512 373.333333A96 96 0 0 1 608 469.333333 96 96 0 0 1 512 565.333333 96 96 0 0 1 416 469.333333 96 96 0 0 1 512 373.333333z"  horiz-adv-x="1024" />

    
    <glyph glyph-name="account-box" unicode="&#58883;" d="M256 170.666667c0 85.333333 170.666667 132.266667 256 132.266666s256-46.933333 256-132.266666v-42.666667H256m384 384a128 128 0 0 0-128-128 128 128 0 0 0-128 128 128 128 0 0 0 128 128 128 128 0 0 0 128-128M128 682.666667v-597.333334a85.333333 85.333333 0 0 1 85.333333-85.333333h597.333334a85.333333 85.333333 0 0 1 85.333333 85.333333V682.666667a85.333333 85.333333 0 0 1-85.333333 85.333333H213.333333a85.333333 85.333333 0 0 1-85.333333-85.333333z"  horiz-adv-x="1024" />

    
    <glyph glyph-name="access-point-network" unicode="&#58884;" d="M210.346667 770.986667A425.344 425.344 0 0 1 85.333333 469.333333c0-117.76 47.786667-224.426667 125.013334-301.653333l60.16 60.16A338.688 338.688 0 0 0 170.666667 469.333333c0 94.293333 37.973333 180.053333 99.84 241.493334L210.346667 770.986667m603.306666 0l-60.16-60.16A339.413333 339.413333 0 0 0 853.333333 469.333333c0-94.72-37.973333-180.053333-99.84-241.493333l60.16-60.16A425.344 425.344 0 0 1 938.666667 469.333333c0 117.76-47.786667 224.426667-125.013334 301.653334M331.093333 650.24A255.146667 255.146667 0 0 1 256 469.333333c0-70.4 28.586667-134.4 75.093333-180.906666l60.16 60.16A170.24 170.24 0 0 0 341.333333 469.333333c0 47.36 19.2 90.026667 49.92 120.746667L331.093333 650.24m361.813334 0l-60.16-60.16A170.24 170.24 0 0 0 682.666667 469.333333c0-47.36-19.2-90.026667-49.92-120.746666l60.16-60.16A255.146667 255.146667 0 0 1 768 469.333333c0 70.4-28.586667 134.4-75.093333 180.906667M512 554.666667a85.333333 85.333333 0 0 1-85.333333-85.333334 85.333333 85.333333 0 0 1 85.333333-85.333333 85.333333 85.333333 0 0 1 85.333333 85.333333 85.333333 85.333333 0 0 1-85.333333 85.333334m-42.666667-256v-170.666667h-42.666666a42.666667 42.666667 0 0 1-42.666667-42.666667H85.333333v-85.333333h298.666667a42.666667 42.666667 0 0 1 42.666667-42.666667h170.666666a42.666667 42.666667 0 0 1 42.666667 42.666667h298.666667v85.333333h-298.666667a42.666667 42.666667 0 0 1-42.666667 42.666667h-42.666666v170.666667h-85.333334z"  horiz-adv-x="1024" />

    
    <glyph glyph-name="account-alert" unicode="&#58885;" d="M426.666667 725.333333a170.666667 170.666667 0 0 0 170.666666-170.666666 170.666667 170.666667 0 0 0-170.666666-170.666667 170.666667 170.666667 0 0 0-170.666667 170.666667 170.666667 170.666667 0 0 0 170.666667 170.666666m0-426.666666c188.586667 0 341.333333-76.373333 341.333333-170.666667v-85.333333H85.333333v85.333333c0 94.293333 152.746667 170.666667 341.333334 170.666667m426.666666 85.333333V597.333333h85.333334v-213.333333h-85.333334m0-170.666667v85.333334h85.333334v-85.333334h-85.333334z"  horiz-adv-x="1024" />

    
    <glyph glyph-name="account-card-details" unicode="&#58886;" d="M85.333333 768h853.333334c44.8 0 85.333333-40.533333 85.333333-85.333333v-597.333334c0-44.8-40.533333-85.333333-85.333333-85.333333H85.333333c-44.8 0-85.333333 40.533333-85.333333 85.333333V682.666667c0 44.8 40.533333 85.333333 85.333333 85.333333m512-128v-42.666667h341.333334V640h-341.333334m0-85.333333v-42.666667h341.333334V554.666667h-341.333334m0-85.333334v-42.666666h298.666667v42.666666h-298.666667m-256-166.826666C256 302.506667 85.333333 256 85.333333 170.666667v-42.666667h512v42.666667c0 85.333333-170.666667 131.84-256 131.84M341.333333 640a128 128 0 0 1-128-128 128 128 0 0 1 128-128 128 128 0 0 1 128 128 128 128 0 0 1-128 128z"  horiz-adv-x="1024" />

    
    <glyph glyph-name="account" unicode="&#58887;" d="M512 725.333333a170.666667 170.666667 0 0 0 170.666667-170.666666 170.666667 170.666667 0 0 0-170.666667-170.666667 170.666667 170.666667 0 0 0-170.666667 170.666667 170.666667 170.666667 0 0 0 170.666667 170.666666m0-426.666666c188.586667 0 341.333333-76.373333 341.333333-170.666667v-85.333333H170.666667v85.333333c0 94.293333 152.746667 170.666667 341.333333 170.666667z"  horiz-adv-x="1024" />

    
    <glyph glyph-name="account-check" unicode="&#58888;" d="M384 682.666667a149.333333 149.333333 0 0 0 149.333333-149.333334A149.333333 149.333333 0 0 0 384 384a149.333333 149.333333 0 0 0-149.333333 149.333333A149.333333 149.333333 0 0 0 384 682.666667m0-373.333334c165.12 0 298.666667-66.986667 298.666667-149.333333V85.333333H85.333333v74.666667c0 82.346667 133.546667 149.333333 298.666667 149.333333m341.333333 46.506667l-117.333333 128 49.493333 49.493333L725.333333 465.493333l153.173334 153.173334 49.493333-60.16L725.333333 355.84z"  horiz-adv-x="1024" />

    
    <glyph glyph-name="account-key" unicode="&#58889;" d="M469.333333 469.333333v-85.333333h-42.666666v-85.333333H341.333333v85.333333H248.746667A127.573333 127.573333 0 0 0 128 298.666667a128 128 0 0 0-128 128 128 128 0 0 0 128 128c55.893333 0 103.253333-35.413333 120.746667-85.333334H469.333333m-341.333333 0a42.666667 42.666667 0 0 1-42.666667-42.666666 42.666667 42.666667 0 0 1 42.666667-42.666667 42.666667 42.666667 0 0 1 42.666667 42.666667 42.666667 42.666667 0 0 1-42.666667 42.666666m554.666667-170.666666c113.92 0 341.333333-57.173333 341.333333-170.666667v-85.333333H341.333333v85.333333c0 113.493333 227.413333 170.666667 341.333334 170.666667m0 85.333333a170.666667 170.666667 0 0 0-170.666667 170.666667 170.666667 170.666667 0 0 0 170.666667 170.666666 170.666667 170.666667 0 0 0 170.666666-170.666666 170.666667 170.666667 0 0 0-170.666666-170.666667z"  horiz-adv-x="1024" />

    
    <glyph glyph-name="account-convert" unicode="&#58891;" d="M320-21.333333l57.6 57.173333 162.56-162.56L512-128C243.626667-128 23.893333 78.506667 2.133333 341.333333h64c15.36-160.426667 115.2-296.106667 253.866667-362.666666m384 810.666666l-57.6-57.173333L483.84 894.72 512 896c268.373333 0 488.106667-206.506667 509.866667-469.333333h-64c-15.36 160.426667-115.2 295.68-253.866667 362.666666M256 170.666667c0 85.333333 170.666667 132.266667 256 132.266666s256-46.933333 256-132.266666v-42.666667H256v42.666667m384 341.333333a128 128 0 0 0-128-128 128 128 0 0 0-128 128 128 128 0 0 0 128 128 128 128 0 0 0 128-128z"  horiz-adv-x="1024" />

    
    <glyph glyph-name="account-circle" unicode="&#58892;" d="M512 76.8c-106.666667 0-200.96 54.613333-256 136.533333 1.28 85.333333 170.666667 132.266667 256 132.266667s254.72-46.933333 256-132.266667a308.565333 308.565333 0 0 0-256-136.533333M512 682.666667a128 128 0 0 0 128-128 128 128 0 0 0-128-128 128 128 0 0 0-128 128 128 128 0 0 0 128 128m0 128A426.666667 426.666667 0 0 1 85.333333 384a426.666667 426.666667 0 0 1 426.666667-426.666667 426.666667 426.666667 0 0 1 426.666667 426.666667c0 235.946667-192 426.666667-426.666667 426.666667z"  horiz-adv-x="1024" />

    
    <glyph glyph-name="account-minus" unicode="&#58893;" d="M640 298.666667c-113.92 0-341.333333-56.746667-341.333333-170.666667v-85.333333h682.666666v85.333333c0 113.92-227.413333 170.666667-341.333333 170.666667M42.666667 469.333333v-85.333333h341.333333v85.333333m256-85.333333a170.666667 170.666667 0 0 1 170.666667 170.666667 170.666667 170.666667 0 0 1-170.666667 170.666666 170.666667 170.666667 0 0 1-170.666667-170.666666 170.666667 170.666667 0 0 1 170.666667-170.666667z"  horiz-adv-x="1024" />

    
    <glyph glyph-name="account-location" unicode="&#58894;" d="M768 213.333333H256v38.4c0 85.333333 170.666667 132.266667 256 132.266667s256-46.933333 256-132.266667m-256 418.133334c64 0 115.2-51.2 115.2-115.2 0-64-51.2-115.2-115.2-115.2-64 0-115.2 51.2-115.2 115.2 0 64 51.2 115.2 115.2 115.2M810.666667 810.666667H213.333333c-47.36 0-85.333333-37.973333-85.333333-85.333334v-597.333333a85.333333 85.333333 0 0 1 85.333333-85.333333h170.666667l128-128 128 128h170.666667a85.333333 85.333333 0 0 1 85.333333 85.333333V725.333333a85.333333 85.333333 0 0 1-85.333333 85.333334z"  horiz-adv-x="1024" />

    
    <glyph glyph-name="account-multiple" unicode="&#58895;" d="M682.666667 341.333333c-12.373333 0-26.453333 0-41.386667-2.133333C690.773333 303.36 725.333333 256 725.333333 192V85.333333h256v106.666667c0 99.413333-199.253333 149.333333-298.666666 149.333333m-341.333334 0c-99.413333 0-298.666667-49.92-298.666666-149.333333V85.333333h597.333333v106.666667c0 99.413333-199.253333 149.333333-298.666667 149.333333m0 85.333334a128 128 0 0 1 128 128 128 128 0 0 1-128 128 128 128 0 0 1-128-128 128 128 0 0 1 128-128m341.333334 0a128 128 0 0 1 128 128 128 128 0 0 1-128 128 128 128 0 0 1-128-128 128 128 0 0 1 128-128z"  horiz-adv-x="1024" />

    
    <glyph glyph-name="account-multiple-minus" unicode="&#60661;" d="M554.666667 341.333333c-85.333333 0-256-42.666667-256-128v-85.333333h512v85.333333c0 85.333333-170.666667 128-256 128m282.453333-6.826666c35.413333-30.72 58.88-70.826667 58.88-121.173334v-85.333333h128v85.333333c0 65.706667-101.12 106.666667-186.88 121.173334M554.666667 426.666667a128 128 0 0 1 128 128 128 128 0 0 1-128 128 128 128 0 0 1-128-128 128 128 0 0 1 128-128m213.333333 0a128 128 0 0 1 128 128 128 128 0 0 1-128 128c-13.653333 0-26.88-2.133333-39.253333-5.973334 24.32-34.56 39.253333-76.8 39.253333-122.026666 0-45.226667-14.933333-87.04-39.253333-121.6 12.373333-4.266667 25.6-6.4 39.253333-6.4M341.333333 469.333333H0v-85.333333h341.333333v85.333333z"  horiz-adv-x="1024" />

    
    <glyph glyph-name="account-multiple-plus" unicode="&#60662;" d="M554.666667 341.333333c-85.333333 0-256-42.666667-256-128v-85.333333h512v85.333333c0 85.333333-170.666667 128-256 128m282.453333-6.826666c35.413333-30.72 58.88-70.826667 58.88-121.173334v-85.333333h128v85.333333c0 65.706667-101.12 106.666667-186.88 121.173334M554.666667 426.666667a128 128 0 0 1 128 128 128 128 0 0 1-128 128 128 128 0 0 1-128-128 128 128 0 0 1 128-128m213.333333 0a128 128 0 0 1 128 128 128 128 0 0 1-128 128c-13.653333 0-26.88-2.133333-39.253333-5.973334 24.32-34.56 39.253333-76.8 39.253333-122.026666 0-45.226667-14.933333-87.04-39.253333-121.6 12.373333-4.266667 25.6-6.4 39.253333-6.4M341.333333 469.333333H213.333333V597.333333H128v-128H0v-85.333333h128v-128h85.333333v128h128v85.333333z"  horiz-adv-x="1024" />

    
    <glyph glyph-name="account-multiple-outline" unicode="&#60663;" d="M704 618.666667a85.333333 85.333333 0 0 0 85.333333-85.333334 85.333333 85.333333 0 0 0-85.333333-85.333333 85.333333 85.333333 0 0 0-85.333333 85.333333 85.333333 85.333333 0 0 0 85.333333 85.333334m0-234.666667A149.333333 149.333333 0 0 1 853.333333 533.333333 149.333333 149.333333 0 0 1 704 682.666667 149.333333 149.333333 0 0 1 554.666667 533.333333a149.333333 149.333333 0 0 1 149.333333-149.333333m-384 234.666667a85.333333 85.333333 0 0 0 85.333333-85.333334 85.333333 85.333333 0 0 0-85.333333-85.333333 85.333333 85.333333 0 0 0-85.333333 85.333333 85.333333 85.333333 0 0 0 85.333333 85.333334m0-234.666667A149.333333 149.333333 0 0 1 469.333333 533.333333 149.333333 149.333333 0 0 1 320 682.666667 149.333333 149.333333 0 0 1 170.666667 533.333333 149.333333 149.333333 0 0 1 320 384m597.333333-234.666667H597.333333v53.333334c0 19.626667-8.533333 36.693333-21.333333 52.053333 36.693333 12.8 82.773333 22.613333 128 22.613333 104.106667 0 213.333333-51.626667 213.333333-74.666666m-384-53.333334h-426.666666v53.333334c0 23.04 109.226667 74.666667 213.333333 74.666666s213.333333-51.626667 213.333333-74.666666m170.666667 138.666666c-51.2 0-130.986667-14.506667-192-42.666666-61.013333 28.586667-140.8 42.666667-192 42.666666C227.413333 341.333333 42.666667 295.253333 42.666667 202.666667V85.333333h938.666666v117.333334c0 92.586667-184.746667 138.666667-277.333333 138.666666z"  horiz-adv-x="1024" />

    
    <glyph glyph-name="account-plus" unicode="&#60664;" d="M640 298.666667c-113.92 0-341.333333-56.746667-341.333333-170.666667v-85.333333h682.666666v85.333333c0 113.92-227.413333 170.666667-341.333333 170.666667m-384 170.666666V597.333333H170.666667v-128H42.666667v-85.333333h128v-128h85.333333v128h128v85.333333m256-85.333333a170.666667 170.666667 0 0 1 170.666667 170.666667 170.666667 170.666667 0 0 1-170.666667 170.666666 170.666667 170.666667 0 0 1-170.666667-170.666666 170.666667 170.666667 0 0 1 170.666667-170.666667z"  horiz-adv-x="1024" />

    
    <glyph glyph-name="account-network" unicode="&#60665;" d="M554.666667 213.333333v-85.333333h42.666666a42.666667 42.666667 0 0 0 42.666667-42.666667h298.666667v-85.333333h-298.666667a42.666667 42.666667 0 0 0-42.666667-42.666667h-170.666666a42.666667 42.666667 0 0 0-42.666667 42.666667H85.333333v85.333333h298.666667a42.666667 42.666667 0 0 0 42.666667 42.666667h42.666666v85.333333H213.333333v64c0 82.346667 133.546667 149.333333 298.666667 149.333334s298.666667-66.986667 298.666667-149.333334V213.333333h-256M512 810.666667a149.333333 149.333333 0 0 0 149.333333-149.333334A149.333333 149.333333 0 0 0 512 512a149.333333 149.333333 0 0 0-149.333333 149.333333A149.333333 149.333333 0 0 0 512 810.666667z"  horiz-adv-x="1024" />

    
    <glyph glyph-name="account-off" unicode="&#60666;" d="M512 725.333333a170.666667 170.666667 0 0 0 170.666667-170.666666c0-83.2-59.733333-152.746667-138.666667-167.68L344.32 586.666667A170.837333 170.837333 0 0 0 512 725.333333m11.946667-426.666666l256-256L853.333333-30.72 799.146667-85.333333l-128 128H170.666667v85.333333c0 78.506667 106.666667 144.64 250.453333 164.693333L118.613333 595.2l54.186667 54.186667L523.946667 298.666667M853.333333 128v-50.346667l-207.36 207.36C768 258.986667 853.333333 198.4 853.333333 128z"  horiz-adv-x="1024" />

    
    <glyph glyph-name="account-outline" unicode="&#60667;" d="M512 341.333333c-113.92 0-341.333333-56.746667-341.333333-170.666666v-128h682.666666v128c0 113.92-227.413333 170.666667-341.333333 170.666666m0 384a170.666667 170.666667 0 0 1-170.666667-170.666666 170.666667 170.666667 0 0 1 170.666667-170.666667 170.666667 170.666667 0 0 1 170.666667 170.666667 170.666667 170.666667 0 0 1-170.666667 170.666666m0-465.066666c126.72 0 260.266667-62.293333 260.266667-89.6v-46.933334H251.733333V170.666667c0 27.306667 132.266667 89.6 260.266667 89.6m0 384A89.6 89.6 0 0 0 601.6 554.666667a89.6 89.6 0 0 0-89.6-89.6A89.6 89.6 0 0 0 422.4 554.666667 89.6 89.6 0 0 0 512 644.266667z"  horiz-adv-x="1024" />

    
    <glyph glyph-name="account-remove" unicode="&#60668;" d="M640 298.666667c113.92 0 341.333333-56.746667 341.333333-170.666667v-85.333333H298.666667v85.333333c0 113.92 227.413333 170.666667 341.333333 170.666667m0 85.333333a170.666667 170.666667 0 0 0-170.666667 170.666667 170.666667 170.666667 0 0 0 170.666667 170.666666 170.666667 170.666667 0 0 0 170.666667-170.666666 170.666667 170.666667 0 0 0-170.666667-170.666667M213.333333 486.826667l90.453334 90.88 60.586666-60.586667L273.493333 426.666667l90.88-90.453334-60.586666-60.586666L213.333333 366.506667l-90.453333-90.88-60.586667 60.586666L153.173333 426.666667 62.293333 517.12l60.586667 60.586667L213.333333 486.826667z"  horiz-adv-x="1024" />

    
    <glyph glyph-name="account-star" unicode="&#60669;" d="M640 298.666667c-113.92 0-341.333333-56.746667-341.333333-170.666667v-85.333333h682.666666v85.333333c0 113.92-227.413333 170.666667-341.333333 170.666667m0 85.333333a170.666667 170.666667 0 0 1 170.666667 170.666667 170.666667 170.666667 0 0 1-170.666667 170.666666 170.666667 170.666667 0 0 1-170.666667-170.666666 170.666667 170.666667 0 0 1 170.666667-170.666667M213.333333 329.386667l104.533334-63.573334-27.733334 119.893334L384 465.92l-123.306667 10.666667L213.333333 589.226667 165.12 476.586667 42.666667 465.92l93.013333-80.213333-29.013333-119.893334L213.333333 329.386667z"  horiz-adv-x="1024" />

    
    <glyph glyph-name="account-settings" unicode="&#60670;" d="M512 725.333333a170.666667 170.666667 0 0 0 170.666667-170.666666 170.666667 170.666667 0 0 0-170.666667-170.666667 170.666667 170.666667 0 0 0-170.666667 170.666667 170.666667 170.666667 0 0 0 170.666667 170.666666m0-426.666666c188.586667 0 341.333333-76.373333 341.333333-170.666667v-85.333333H170.666667v85.333333c0 94.293333 152.746667 170.666667 341.333333 170.666667m-213.333333-341.333334h85.333333v-85.333333H298.666667v85.333333m170.666666 0h85.333334v-85.333333h-85.333334v85.333333m170.666667 0h85.333333v-85.333333h-85.333333v85.333333z"  horiz-adv-x="1024" />

    
    <glyph glyph-name="account-settings-variant" unicode="&#60671;" d="M384 725.333333a170.666667 170.666667 0 0 1-170.666667-170.666666 170.666667 170.666667 0 0 1 170.666667-170.666667 170.666667 170.666667 0 0 1 170.666667 170.666667 170.666667 170.666667 0 0 1-170.666667 170.666666m0-426.666666c-113.92 0-341.333333-56.746667-341.333333-170.666667v-85.333333h472.746666c-2.133333 14.08-3.413333 28.16-3.413333 42.666666 0 64 21.333333 128 60.16 179.2-65.28 22.186667-137.813333 34.133333-188.16 34.133334m384 0a11.093333 11.093333 0 0 1-11.093333-8.96l-8.106667-56.32c-12.8-5.546667-25.173333-12.373333-36.266667-20.053334l-52.906666 21.333334c-4.693333 0-10.24 0-13.226667-5.546667l-42.666667-73.813333c-2.56-4.693333-1.706667-10.24 2.56-13.653334l45.226667-34.986666a178.901333 178.901333 0 0 1 0-42.666667l-45.226667-34.986667a11.093333 11.093333 0 0 1-2.56-13.653333l42.666667-73.813333c2.56-5.546667 8.106667-5.546667 13.226667-5.546667l52.906666 21.333333c11.093333-7.68 23.04-14.933333 36.266667-20.053333l8.106667-56.32c0.853333-5.12 5.12-8.96 11.093333-8.96h85.333333c4.693333 0 9.386667 3.84 10.24 8.96l8.106667 56.32c12.8 5.546667 24.32 12.373333 35.84 20.053333l52.48-21.333333c5.546667 0 11.093333 0 14.08 5.546667l42.666667 73.813333a11.093333 11.093333 0 0 1-2.56 13.653333l-45.653334 34.986667c0.853333 7.253333 1.706667 14.08 1.706667 21.333333 0 7.253333-0.426667 14.08-1.706667 21.333334l45.226667 34.986666a11.093333 11.093333 0 0 1 2.56 13.653334l-42.666667 73.813333c-2.56 5.546667-8.106667 5.546667-13.653333 5.546667l-52.48-21.333334c-11.52 7.68-23.04 14.933333-36.266667 20.053334l-8.106666 56.32A10.069333 10.069333 0 0 1 853.333333 298.666667m-42.666666-149.333334a64 64 0 0 0 64-64 64 64 0 0 0-64-64c-35.84 0-64 28.586667-64 64a64 64 0 0 0 64 64z"  horiz-adv-x="1024" />

    
    <glyph glyph-name="account-search" unicode="&#60672;" d="M405.333333 768A277.333333 277.333333 0 0 0 682.666667 490.666667c0-68.693333-25.173333-131.84-66.986667-180.48l11.946667-11.52h33.706666l213.333334-213.333334-64-64-213.333334 213.333334v33.706666l-11.52 11.946667A276.096 276.096 0 0 0 405.333333 213.333333 277.333333 277.333333 0 0 0 128 490.666667 277.333333 277.333333 0 0 0 405.333333 768m0-469.333333c68.693333 0 128 36.266667 162.986667 90.453333C533.333333 437.333333 474.026667 469.333333 405.333333 469.333333c-68.693333 0-128-32-162.986666-80.213333C277.333333 334.933333 336.64 298.666667 405.333333 298.666667m0 384a74.666667 74.666667 0 0 1-74.666666-74.666667A74.666667 74.666667 0 0 1 405.333333 533.333333a74.666667 74.666667 0 0 1 74.666667 74.666667A74.666667 74.666667 0 0 1 405.333333 682.666667z"  horiz-adv-x="1024" />

    
    <glyph glyph-name="account-star-variant" unicode="&#60673;" d="M384 298.666667c113.92 0 341.333333-56.746667 341.333333-170.666667v-85.333333H42.666667v85.333333c0 113.92 227.413333 170.666667 341.333333 170.666667m0 85.333333a170.666667 170.666667 0 0 0-170.666667 170.666667 170.666667 170.666667 0 0 0 170.666667 170.666666 170.666667 170.666667 0 0 0 170.666667-170.666666 170.666667 170.666667 0 0 0-170.666667-170.666667m426.666667-54.613333l-104.96-63.573334 28.16 119.893334-93.866667 80.213333 123.306667 10.666667L810.666667 589.226667l48.213333-112.64 122.453333-10.666667-93.013333-80.213333 29.013333-119.893334-106.666666 63.573334z"  horiz-adv-x="1024" />

    
    <glyph glyph-name="account-switch" unicode="&#60674;" d="M682.666667 512c99.413333 0 298.666667-49.92 298.666666-149.333333V256h-256v106.666667c0 64-34.56 111.36-83.626666 147.2L682.666667 512M341.333333 512c99.413333 0 298.666667-49.92 298.666667-149.333333V256H42.666667v106.666667C42.666667 462.08 241.92 512 341.333333 512m0 85.333333a128 128 0 0 0-128 128 128 128 0 0 0 128 128 128 128 0 0 0 128-128 128 128 0 0 0-128-128m341.333334 0a128 128 0 0 0-128 128 128 128 0 0 0 128 128 128 128 0 0 0 128-128 128 128 0 0 0-128-128m-298.666667-416V85.333333h256v96L778.666667 42.666667 640-96V0H384v-96L245.333333 42.666667 384 181.333333z"  horiz-adv-x="1024" />

    
    <glyph glyph-name="adjust" unicode="&#60675;" d="M512 810.666667A426.666667 426.666667 0 0 1 85.333333 384a426.666667 426.666667 0 0 1 426.666667-426.666667 426.666667 426.666667 0 0 1 426.666667 426.666667A426.666667 426.666667 0 0 1 512 810.666667m0-768c-188.16 0-341.333333 153.173333-341.333333 341.333333s153.173333 341.333333 341.333333 341.333333 341.333333-153.173333 341.333333-341.333333-153.173333-341.333333-341.333333-341.333333m128 341.333333a128 128 0 0 0-128-128 128 128 0 0 0-128 128 128 128 0 0 0 128 128 128 128 0 0 0 128-128z"  horiz-adv-x="1024" />

    
    <glyph glyph-name="air-conditioner" unicode="&#60676;" d="M281.186894 867.781498c99.834135 77.22213 208.201102-17.065664 232.519672-163.830375 18.345589 0 36.264536-5.119699 52.476917-14.505815 22.185363 25.598496 41.810877 60.583107 34.131329 99.834135-17.918947 91.727944 84.901679 165.963583 182.602605 39.251028 77.22213-99.834135-17.065664-208.201102-164.257017-232.519673 0-18.345589-4.693058-36.691178-14.505814-52.903559 25.598496-21.758722 60.583107-41.384235 99.834135-33.704686 90.874661 17.918947 165.536941-84.475037 38.824385-182.602606-99.834135-77.22213-208.201102 17.065664-232.519672 163.830375-18.345589 0-36.264536 5.546341-52.050276 14.932456-22.185363-25.598496-42.237519-61.009749-34.55797-100.260776 17.918947-91.301303-84.901679-165.963583-182.602605-39.251027-77.648771 100.260776 17.065664 208.627743 164.257017 232.519672 0 18.345589 5.546341 36.264536 14.932456 52.476917-25.598496 21.758722-60.583107 41.810877-100.260777 34.131328-90.874661-17.918947-165.536941 84.475037-38.824385 182.602606M213.350879 213.313281h85.32832a85.32832 85.32832 0 0 0 85.328321-85.32832v-255.984961H298.679199v85.32832H213.350879v-85.32832H128.022559v255.984961a85.32832 85.32832 0 0 0 85.32832 85.32832m0-85.32832v-85.32832h85.32832v85.32832H213.350879m338.32679 85.32832H639.99248l-125.005989-341.313281H426.67168l125.005989 341.313281M767.984961 213.313281h127.99248v-85.32832h-127.99248v-170.656641h127.99248v-85.32832h-127.99248a85.32832 85.32832 0 0 0-85.32832 85.32832v170.656641a85.32832 85.32832 0 0 0 85.32832 85.32832z"  horiz-adv-x="1024" />

    
    <glyph glyph-name="airplay" unicode="&#60680;" d="M256-42.666667h512l-256 256m384 554.666667H128a85.333333 85.333333 0 0 1-85.333333-85.333333v-512a85.333333 85.333333 0 0 1 85.333333-85.333334h170.666667v85.333334H128V682.666667h768v-512h-170.666667v-85.333334h170.666667a85.333333 85.333333 0 0 1 85.333333 85.333334V682.666667a85.333333 85.333333 0 0 1-85.333333 85.333333z"  horiz-adv-x="1024" />

    
    <glyph glyph-name="alarm" unicode="&#58897;" d="M512 42.666667a298.666667 298.666667 0 0 0-298.666667 298.666666 298.666667 298.666667 0 0 0 298.666667 298.666667 298.666667 298.666667 0 0 0 298.666667-298.666667 298.666667 298.666667 0 0 0-298.666667-298.666666m0 682.666666a384 384 0 0 1-384-384 384 384 0 0 1 384-384 384 384 0 0 1 384 384 384 384 0 0 1-384 384m21.333333-170.666666H469.333333v-256l202.666667-121.6 32 52.48-170.666667 101.12V554.666667M336.213333 751.36L281.6 816.64 85.333333 652.373333l55.04-65.28 195.84 164.266667M938.666667 651.946667l-196.266667 164.693333-55.04-65.28 196.266667-164.693333L938.666667 651.946667z"  horiz-adv-x="1024" />

    
    <glyph glyph-name="alarm-check" unicode="&#58898;" d="M449.706667 276.053333L358.826667 366.933333l-45.226667-45.226666 135.68-135.68 256 256-45.226667 45.226666-210.346666-211.2M512 42.666667a298.666667 298.666667 0 0 0-298.666667 298.666666 298.666667 298.666667 0 0 0 298.666667 298.666667 298.666667 298.666667 0 0 0 298.666667-298.666667 298.666667 298.666667 0 0 0-298.666667-298.666666m0 682.666666a384 384 0 0 1-384-384 384 384 0 0 1 384-384 384 384 0 0 1 384 384 384 384 0 0 1-384 384m-175.786667 26.026667L281.6 816.64 85.333333 652.373333l55.04-65.28 195.84 164.266667M938.666667 651.946667l-196.266667 164.693333-55.04-65.28 196.266667-164.693333L938.666667 651.946667z"  horiz-adv-x="1024" />

    
    <glyph glyph-name="alarm-multiple" unicode="&#58899;" d="M396.373333 757.333333L220.16 609.28 170.666667 668.16l176.64 148.053333 49.066666-58.88M938.666667 667.733333l-49.493334-58.88-176.64 148.48 49.493334 58.88L938.666667 667.733333M554.666667 725.333333a341.333333 341.333333 0 0 0 341.333333-341.333333 341.333333 341.333333 0 0 0-341.333333-341.333333 341.333333 341.333333 0 0 0-341.333334 341.333333 341.333333 341.333333 0 0 0 341.333334 341.333333m0-85.333333a256 256 0 0 1-256-256 256 256 0 0 1 256-256 256 256 0 0 1 256 256 256 256 0 0 1-256 256m-42.666667-64h64v-193.28l137.386667-62.72-26.453334-58.026667L512 341.333333V576M42.666667 298.666667c0 106.666667 48.213333 200.533333 124.16 263.253333A425.6 425.6 0 0 1 128 384l2.56-48.213333L128 298.666667c0-97.28 54.186667-181.76 133.973333-225.28 55.466667-52.053333 125.013333-90.026667 202.666667-106.666667-26.026667-5.973333-52.906667-9.386667-80.64-9.386667a341.333333 341.333333 0 0 0-341.333333 341.333334z"  horiz-adv-x="1024" />

    
    <glyph glyph-name="alarm-snooze" unicode="&#58900;" d="M336.213333 751.36L281.6 816.64 85.333333 652.373333l55.04-65.28 195.84 164.266667M938.666667 651.946667l-196.266667 164.693333-55.04-65.28 196.266667-164.693333L938.666667 651.946667M512 725.333333a384 384 0 0 1-384-384 384 384 0 0 1 384-384 384 384 0 0 1 384 384 384 384 0 0 1-384 384m0-682.666666a298.666667 298.666667 0 0 0-298.666667 298.666666 298.666667 298.666667 0 0 0 298.666667 298.666667 298.666667 298.666667 0 0 0 298.666667-298.666667 298.666667 298.666667 0 0 0-298.666667-298.666666m-128 384h154.88L384 247.466667V170.666667h256v85.333333h-154.88L640 435.2V512H384v-85.333333z"  horiz-adv-x="1024" />

    
    <glyph glyph-name="alarm-off" unicode="&#58901;" d="M341.333333 756.053333L281.6 816.64l-36.693333-30.293333L305.493333 725.333333m397.226667-613.973333C651.093333 68.693333 584.533333 42.666667 512 42.666667a298.666667 298.666667 0 0 0-298.666667 298.666666c0 72.533333 26.026667 139.093333 68.693334 190.72M124.586667 798.293333L70.4 743.68 128 686.933333l-48.213333-39.68 60.586666-60.586666 47.36 40.106666 34.133334-34.133333A382.464 382.464 0 0 1 128 341.333333a384 384 0 0 1 384-384c96 0 183.893333 35.413333 251.306667 93.866667l93.866666-93.866667 54.186667 54.186667L165.973333 756.48l-41.386666 41.813333M938.666667 651.946667l-196.266667 164.693333-55.04-65.28 196.266667-164.693333L938.666667 651.946667M512 640a298.666667 298.666667 0 0 0 298.666667-298.666667c0-35.84-6.826667-70.4-18.346667-102.4l64.853333-64.853333c24.746667 50.773333 38.826667 107.093333 38.826667 167.253333a384 384 0 0 1-384 384c-60.16 0-116.48-14.08-167.253333-38.826666L409.6 621.653333C441.6 633.173333 476.16 640 512 640z"  horiz-adv-x="1024" />

    
    <glyph glyph-name="alarm-plus" unicode="&#58902;" d="M554.666667 512h-85.333334v-128H341.333333v-85.333333h128v-128h85.333334v128h128v85.333333h-128m-42.666667-341.333333a298.666667 298.666667 0 0 0-298.666667 298.666666 298.666667 298.666667 0 0 0 298.666667 298.666667 298.666667 298.666667 0 0 0 298.666667-298.666667 298.666667 298.666667 0 0 0-298.666667-298.666666m0 682.666666a384 384 0 0 1-384-384 384 384 0 0 1 384-384 384 384 0 0 1 384 384 384 384 0 0 1-384 384m426.666667-73.386666l-196.266667 164.693333-55.04-65.28 196.266667-164.693333M336.213333 751.36L281.6 816.64 85.333333 652.373333l55.04-65.28 195.84 164.266667z"  horiz-adv-x="1024" />

    
    <glyph glyph-name="alert" unicode="&#58903;" d="M554.666667 298.666667h-85.333334v170.666666h85.333334m0-341.333333h-85.333334v85.333333h85.333334M42.666667 0h938.666666L512 810.666667 42.666667 0z"  horiz-adv-x="1024" />

    
    <glyph glyph-name="alert-box" unicode="&#58904;" d="M213.333333 768h597.333334a85.333333 85.333333 0 0 0 85.333333-85.333333v-597.333334a85.333333 85.333333 0 0 0-85.333333-85.333333H213.333333a85.333333 85.333333 0 0 0-85.333333 85.333333V682.666667a85.333333 85.333333 0 0 0 85.333333 85.333333m341.333334-426.666667V597.333333h-85.333334v-256h85.333334m0-170.666666v85.333333h-85.333334v-85.333333h85.333334z"  horiz-adv-x="1024" />

    
    <glyph glyph-name="alert-circle" unicode="&#58905;" d="M554.666667 341.333333h-85.333334V597.333333h85.333334m0-426.666666h-85.333334v85.333333h85.333334M512 810.666667A426.666667 426.666667 0 0 1 85.333333 384a426.666667 426.666667 0 0 1 426.666667-426.666667 426.666667 426.666667 0 0 1 426.666667 426.666667A426.666667 426.666667 0 0 1 512 810.666667z"  horiz-adv-x="1024" />

    
    <glyph glyph-name="alert-circle-outline" unicode="&#58906;" d="M469.333333 256h85.333334v-85.333333h-85.333334v85.333333m0 341.333333h85.333334v-256h-85.333334V597.333333m42.666667 213.333334C276.053333 810.666667 85.333333 618.666667 85.333333 384a426.666667 426.666667 0 0 1 426.666667-426.666667 426.666667 426.666667 0 0 1 426.666667 426.666667A426.666667 426.666667 0 0 1 512 810.666667m0-768a341.333333 341.333333 0 0 0-341.333333 341.333333 341.333333 341.333333 0 0 0 341.333333 341.333333 341.333333 341.333333 0 0 0 341.333333-341.333333 341.333333 341.333333 0 0 0-341.333333-341.333333z"  horiz-adv-x="1024" />

    
    <glyph glyph-name="alert-octagon" unicode="&#58907;" d="M554.666667 341.333333h-85.333334V597.333333h85.333334m-42.666667-439.466666a55.466667 55.466667 0 0 0-55.466667 55.466666 55.466667 55.466667 0 0 0 55.466667 55.466667 55.466667 55.466667 0 0 0 55.466667-55.466667 55.466667 55.466667 0 0 0-55.466667-55.466666M671.146667 768H352.853333L128 543.146667v-318.293334L352.853333 0h318.293334L896 224.853333V543.146667L671.146667 768z"  horiz-adv-x="1024" />

    
    <glyph glyph-name="all-inclusive" unicode="&#58908;" d="M793.6 613.546667c-61.44 0-119.466667-23.893333-160.853333-65.28L332.8 282.026667c-27.306667-27.306667-63.573333-42.24-102.4-42.24C150.613333 239.786667 85.333333 304.213333 85.333333 384c0 79.786667 65.28 144.213333 145.066667 144.213333 38.826667 0 75.093333-14.933333 104.106667-43.946666l48.213333-42.666667 65.28 57.173333L393.386667 546.133333A229.12 229.12 0 0 1 230.4 613.546667C103.253333 613.546667 0 510.293333 0 384s103.253333-229.546667 230.4-229.546667c61.44 0 119.466667 23.893333 160.853333 65.28l299.946667 266.24c27.306667 27.306667 63.573333 42.24 102.4 42.24 79.786667 0 145.066667-64.426667 145.066667-144.213333 0-79.786667-65.28-144.213333-145.066667-144.213333-38.4 0-75.093333 14.933333-104.106667 43.946666L640 326.826667l-64-57.173334 54.613333-47.786666a229.802667 229.802667 0 0 1 162.986667-66.986667c127.146667 0 230.4 102.826667 230.4 229.12 0 128-103.253333 229.546667-230.4 229.546667z"  horiz-adv-x="1024" />

    
    <glyph glyph-name="alert-outline" unicode="&#58909;" d="M512 810.666667L42.666667 0h938.666666M512 640l321.28-554.666667H190.72M469.333333 469.333333v-170.666666h85.333334v170.666666m-85.333334-256v-85.333333h85.333334v85.333333"  horiz-adv-x="1024" />

    
    <glyph glyph-name="altimeter" unicode="&#58912;" d="M298.666667 768v-85.333333h426.666666V768H298.666667m85.333333-170.666667v-85.333333h256V597.333333H384m-298.666667-40.96v-344.746666L257.28 384 85.333333 556.373333m854.613334 0L768 384l171.946667-172.373333V556.373333M298.666667 426.666667v-85.333334h426.666666v85.333334H298.666667m85.333333-170.666667v-85.333333h256v85.333333H384m-85.333333-170.666667v-85.333333h426.666666v85.333333H298.666667z"  horiz-adv-x="1024" />

    
    <glyph glyph-name="amazon-clouddrive" unicode="&#58914;" d="M210.773333 421.546667c12.373333 0 23.893333-1.706667 34.986667-4.693334a166.058667 166.058667 0 0 0 165.973333 165.546667c69.12 0 128.853333-42.666667 153.173334-103.253333a134.4 134.4 0 0 0 107.52 52.906666 136.021333 136.021333 0 0 0 132.266666-166.4c10.24 3.84 21.76 5.973333 33.706667 5.973334a100.522667 100.522667 0 0 0 0-200.96H210.773333C141.653333 170.666667 85.333333 226.986667 85.333333 296.106667c0 69.546667 56.32 125.44 125.44 125.44z"  horiz-adv-x="1024" />

    
    <glyph glyph-name="android-debug-bridge" unicode="&#58917;" d="M640 512a42.666667 42.666667 0 0 0-42.666667 42.666667 42.666667 42.666667 0 0 0 42.666667 42.666666 42.666667 42.666667 0 0 0 42.666667-42.666666 42.666667 42.666667 0 0 0-42.666667-42.666667M384 512a42.666667 42.666667 0 0 0-42.666667 42.666667 42.666667 42.666667 0 0 0 42.666667 42.666666 42.666667 42.666667 0 0 0 42.666667-42.666666 42.666667 42.666667 0 0 0-42.666667-42.666667m303.786667 197.546667l89.6 89.6-34.986667 35.413333-98.56-98.56C604.16 756.053333 559.36 768 512 768c-47.786667 0-92.16-11.946667-131.84-32L281.6 834.56l-34.986667-35.413333 89.6-89.6C261.973333 655.36 213.333333 568.32 213.333333 469.333333v-42.666666h597.333334v42.666666c0 98.986667-48.64 186.026667-122.88 240.213334M213.333333 213.333333c0-164.693333 133.546667-298.666667 298.666667-298.666666a298.666667 298.666667 0 0 1 298.666667 298.666666v170.666667H213.333333v-170.666667z"  horiz-adv-x="1024" />

    
    <glyph glyph-name="animation" unicode="&#58923;" d="M170.666667 810.666667c-47.36 0-85.333333-37.973333-85.333334-85.333334v-426.666666h85.333334V725.333333h426.666666V810.666667H170.666667m170.666666-170.666667c-47.36 0-85.333333-37.973333-85.333333-85.333333v-426.666667h85.333333V554.666667h426.666667V640H341.333333m170.666667-170.666667c-47.36 0-85.333333-37.973333-85.333333-85.333333v-341.333333c0-47.36 37.973333-85.333333 85.333333-85.333334h341.333333c47.36 0 85.333333 37.973333 85.333334 85.333334v341.333333c0 47.36-37.973333 85.333333-85.333334 85.333333h-341.333333z"  horiz-adv-x="1024" />

    
    <glyph glyph-name="apple-keyboard-caps" unicode="&#58926;" d="M640 298.666667V554.666667h92.586667L512 775.253333 291.413333 554.666667H384v-256h256M512 896l426.666667-426.666667h-213.333334v-256H298.666667v256H85.333333L512 896M298.666667 128h426.666666v-256H298.666667v256m341.333333-85.333333H384v-85.333334h256v85.333334z"  horiz-adv-x="1024" />

    
    <glyph glyph-name="apple-keyboard-control" unicode="&#58928;" d="M843.946667 393.386667l-60.586667-60.16L512 604.586667l-271.36-271.36-60.586667 60.16L512 725.333333l331.946667-331.946666z"  horiz-adv-x="1024" />

    
    <glyph glyph-name="apple-keyboard-shift" unicode="&#58929;" d="M640 128v256h92.586667L512 604.586667 291.413333 384H384v-256h256M512 725.333333l426.666667-426.666666h-213.333334v-256H298.666667v256H85.333333L512 725.333333z"  horiz-adv-x="1024" />

    
    <glyph glyph-name="apple-keyboard-option" unicode="&#58930;" d="M128 725.333333h260.693333l300.373334-597.333333H896v-85.333333h-261.12L334.506667 640H128V725.333333m469.333333 0h298.666667v-85.333333h-298.666667V725.333333z"  horiz-adv-x="1024" />

    
    <glyph glyph-name="apple-mobileme" unicode="&#58931;" d="M938.666667 254.293333c0-93.44-75.093333-168.96-167.68-168.96H253.013333C160.426667 85.333333 85.333333 160.853333 85.333333 254.293333c0 84.053333 61.013333 153.6 141.226667 166.4-1.28 5.973333-1.706667 11.946667-1.706667 18.346667 0 58.88 47.36 107.093333 106.24 107.093333 26.026667 0 50.346667-9.813333 68.693334-25.6 32.853333 74.666667 75.093333 143.36 193.706666 143.36 143.786667 0 211.626667-111.786667 211.626667-229.973333 0-4.693333 0-9.813333-0.426667-14.506667A168.533333 168.533333 0 0 0 938.666667 254.293333z"  horiz-adv-x="1024" />

    
    <glyph glyph-name="apple-safari" unicode="&#58932;" d="M512 810.666667a426.666667 426.666667 0 0 0 426.666667-426.666667 426.666667 426.666667 0 0 0-426.666667-426.666667A426.666667 426.666667 0 0 0 85.333333 384 426.666667 426.666667 0 0 0 512 810.666667m0-85.333334a341.333333 341.333333 0 0 1-341.333333-341.333333c0-89.173333 34.133333-170.666667 90.026666-230.826667l160.853334 321.28 321.28 160.853334A338.389333 338.389333 0 0 1 512 725.333333m0-682.666666a341.333333 341.333333 0 0 1 341.333333 341.333333c0 89.173333-34.133333 170.666667-90.026666 230.826667l-160.853334-321.28-321.28-160.853334A338.389333 338.389333 0 0 1 512 42.666667m0 341.333333l-32.853333 32.853333L413.866667 285.866667l130.986666 65.28L512 384m0-234.666667h42.666667V85.333333h-42.666667v64m165.546667 68.693334l30.293333 30.293333 45.226667-45.226667-30.293334-30.293333-45.226666 45.226667M746.666667 384v42.666667H810.666667v-42.666667h-64M512 618.666667h-42.666667V682.666667h42.666667v-64M346.453333 549.973333l-30.293333-30.293333-45.226667 45.226667 30.293334 30.293333 45.226666-45.226667M277.333333 384v-42.666667H213.333333v42.666667h64z"  horiz-adv-x="1024" />

    
    <glyph glyph-name="application" unicode="&#58934;" d="M810.666667 725.333333a85.333333 85.333333 0 0 0 85.333333-85.333333v-512a85.333333 85.333333 0 0 0-85.333333-85.333333H213.333333a85.333333 85.333333 0 0 0-85.333333 85.333333V640a85.333333 85.333333 0 0 0 85.333333 85.333333h597.333334m0-597.333333V554.666667H213.333333v-426.666667h597.333334z"  horiz-adv-x="1024" />

    
    <glyph glyph-name="apps" unicode="&#58935;" d="M682.666667 42.666667h170.666666v170.666666h-170.666666m0 85.333334h170.666666v170.666666h-170.666666m-256 85.333334h170.666666V725.333333h-170.666666m256-170.666666h170.666666V725.333333h-170.666666m-256-426.666666h170.666666v170.666666h-170.666666m-256-170.666666h170.666666v170.666666H170.666667m0-426.666666h170.666666v170.666666H170.666667m256-170.666666h170.666666v170.666666h-170.666666M170.666667 554.666667h170.666666V725.333333H170.666667v-170.666666z"  horiz-adv-x="1024" />

    
    <glyph glyph-name="arrange-send-to-back" unicode="&#58936;" d="M85.333333 810.666667h384v-384H85.333333V810.666667m298.666667-85.333334H170.666667v-213.333333h213.333333V725.333333m554.666667-384v-384h-384v384h384m-298.666667-298.666666h213.333333v213.333333h-213.333333v-213.333333m42.666667 512v-128h-128V554.666667h128m-213.333334-341.333334H341.333333v128h128v-128z"  horiz-adv-x="1024" />

    
    <glyph glyph-name="arrange-send-backward" unicode="&#58937;" d="M85.333333 810.666667h597.333334v-597.333334H85.333333V810.666667m853.333334-256v-597.333334H341.333333v170.666667h426.666667V554.666667h170.666667M170.666667 725.333333v-426.666666h426.666666V725.333333H170.666667z"  horiz-adv-x="1024" />

    
    <glyph glyph-name="arrange-bring-forward" unicode="&#58938;" d="M85.333333 810.666667h597.333334v-597.333334H85.333333V810.666667m853.333334-256v-597.333334H341.333333v170.666667h85.333334v-85.333333h426.666666V469.333333h-85.333333V554.666667h170.666667z"  horiz-adv-x="1024" />

    
    <glyph glyph-name="arrange-bring-to-front" unicode="&#58940;" d="M85.333333 810.666667h384v-170.666667H384V725.333333H170.666667v-213.333333h85.333333v-85.333333H85.333333V810.666667m853.333334-469.333334v-384h-384v170.666667h85.333333v-85.333333h213.333333v213.333333h-85.333333v85.333333h170.666667M341.333333 554.666667h341.333334v-341.333334H341.333333V554.666667z"  horiz-adv-x="1024" />

    
    <glyph glyph-name="arrow-all" unicode="&#58941;" d="M554.666667 426.666667h213.333333l-64 64 60.586667 60.586666L931.84 384l-167.253333-167.253333-60.586667 60.586666L768 341.333333h-213.333333v-213.333333l64 64 60.586666-60.586667L512-35.84l-167.253333 167.253333L405.333333 192 469.333333 128v213.333333H256l64-64-60.586667-60.586666L92.16 384l167.253333 167.253333L320 490.666667 256 426.666667h213.333333V640L405.333333 576 344.746667 636.586667 512 803.84l167.253333-167.253333L618.666667 576 554.666667 640v-213.333333z"  horiz-adv-x="1024" />

    
    <glyph glyph-name="arrow-bottom-right" unicode="&#58942;" d="M213.333333 622.506667L273.493333 682.666667 725.333333 230.826667V512h85.333334v-426.666667H384v85.333334h281.173333L213.333333 622.506667z"  horiz-adv-x="1024" />

    
    <glyph glyph-name="arrow-bottom-left" unicode="&#58943;" d="M810.666667 622.506667L750.506667 682.666667 298.666667 230.826667V512H213.333333v-426.666667h426.666667v85.333334H358.826667L810.666667 622.506667z"  horiz-adv-x="1024" />

    
    <glyph glyph-name="arrow-compress" unicode="&#58944;" d="M832 764.16L640 572.16V725.333333h-85.333333v-298.666666h298.666666V512h-153.173333l192 192-60.16 60.16M170.666667 341.333333v-85.333333h153.173333l-192-192 60.16-60.16 192 192V42.666667h85.333333v298.666666H170.666667z"  horiz-adv-x="1024" />

    
    <glyph glyph-name="arrow-compress-all" unicode="&#58945;" d="M832 764.16l60.16-60.16-192-192H853.333333v-85.333333h-298.666666V725.333333h85.333333v-153.173333l192 192m60.16-700.16l-60.16-60.16-192 192V42.666667h-85.333333v298.666666h298.666666v-85.333333h-153.173333l192-192M192 764.16L384 572.16V725.333333h85.333333v-298.666666H170.666667V512h153.173333l-192 192L192 764.16M131.84 64l192 192H170.666667v85.333333h298.666666v-298.666666H384v153.173333l-192-192-60.16 60.16z"  horiz-adv-x="1024" />

    
    <glyph glyph-name="arrow-down" unicode="&#58946;" d="M469.333333 725.333333h85.333334v-512l234.666666 234.666667 60.586667-60.586667L512 49.493333l-337.92 337.92L234.666667 448 469.333333 213.333333V725.333333z"  horiz-adv-x="1024" />

    
    <glyph glyph-name="arrow-down-bold" unicode="&#58947;" d="M426.666667 725.333333h170.666666v-384l149.333334 149.333334 103.253333-103.253334L512 49.493333l-337.92 337.92L277.333333 490.666667 426.666667 341.333333V725.333333z"  horiz-adv-x="1024" />

    
    <glyph glyph-name="arrow-down-bold-circle-outline" unicode="&#58948;" d="M512 170.666667l-213.333333 213.333333h128V554.666667h170.666666v-170.666667h128l-213.333333-213.333333m0 640a426.666667 426.666667 0 0 0 426.666667-426.666667 426.666667 426.666667 0 0 0-426.666667-426.666667A426.666667 426.666667 0 0 0 85.333333 384 426.666667 426.666667 0 0 0 512 810.666667m0-85.333334a341.333333 341.333333 0 0 1-341.333333-341.333333 341.333333 341.333333 0 0 1 341.333333-341.333333 341.333333 341.333333 0 0 1 341.333333 341.333333 341.333333 341.333333 0 0 1-341.333333 341.333333z"  horiz-adv-x="1024" />

    
    <glyph glyph-name="arrow-down-bold-circle" unicode="&#58949;" d="M512 810.666667a426.666667 426.666667 0 0 0 426.666667-426.666667 426.666667 426.666667 0 0 0-426.666667-426.666667A426.666667 426.666667 0 0 0 85.333333 384 426.666667 426.666667 0 0 0 512 810.666667m0-640l213.333333 213.333333h-128V554.666667h-170.666666v-170.666667H298.666667l213.333333-213.333333z"  horiz-adv-x="1024" />

    
    <glyph glyph-name="arrow-down-box" unicode="&#58950;" d="M128 682.666667a85.333333 85.333333 0 0 0 85.333333 85.333333h597.333334a85.333333 85.333333 0 0 0 85.333333-85.333333v-597.333334a85.333333 85.333333 0 0 0-85.333333-85.333333H213.333333a85.333333 85.333333 0 0 0-85.333333 85.333333V682.666667m341.333333-42.666667v-362.666667L320 426.666667l-60.586667-60.586667L512 113.493333l252.586667 252.586667L704 426.666667 554.666667 277.333333V640h-85.333334z"  horiz-adv-x="1024" />

    
    <glyph glyph-name="arrow-down-drop-circle-outline" unicode="&#58951;" d="M512 810.666667A426.666667 426.666667 0 0 1 85.333333 384a426.666667 426.666667 0 0 1 426.666667-426.666667 426.666667 426.666667 0 0 1 426.666667 426.666667A426.666667 426.666667 0 0 1 512 810.666667m0-85.333334a341.333333 341.333333 0 0 0 341.333333-341.333333 341.333333 341.333333 0 0 0-341.333333-341.333333 341.333333 341.333333 0 0 0-341.333333 341.333333 341.333333 341.333333 0 0 0 341.333333 341.333333m-213.333333-256l213.333333-213.333333 213.333333 213.333333H298.666667z"  horiz-adv-x="1024" />

    
    <glyph glyph-name="arrow-expand" unicode="&#58952;" d="M426.666667 0v85.333333H273.493333l192 192-60.16 60.16-192-192V298.666667H128v-298.666667h298.666667m192 430.506667l192 192V469.333333h85.333333V768h-298.666667v-85.333333h153.173334l-192-192 60.16-60.16z"  horiz-adv-x="1024" />

    
    <glyph glyph-name="arrow-down-drop-circle" unicode="&#58953;" d="M512 810.666667a426.666667 426.666667 0 0 0 426.666667-426.666667 426.666667 426.666667 0 0 0-426.666667-426.666667A426.666667 426.666667 0 0 0 85.333333 384 426.666667 426.666667 0 0 0 512 810.666667m-213.333333-341.333334l213.333333-213.333333 213.333333 213.333333H298.666667z"  horiz-adv-x="1024" />

    
    <glyph glyph-name="arrow-down-bold-hexagon-outline" unicode="&#58954;" d="M512 170.666667l-213.333333 213.333333h128V554.666667h170.666666v-170.666667h128l-213.333333-213.333333m384 21.333333c0-16.213333-8.96-30.293333-22.613333-37.546667l-337.066667-189.44c-6.826667-5.12-15.36-7.68-24.32-7.68-8.96 0-17.493333 2.56-24.32 7.68l-337.066667 189.44A42.282667 42.282667 0 0 0 128 192v384c0 16.213333 8.96 30.293333 22.613333 37.546667l337.066667 189.44c6.826667 5.12 15.36 7.68 24.32 7.68 8.96 0 17.493333-2.56 24.32-7.68l337.066667-189.44c13.653333-7.253333 22.613333-21.333333 22.613333-37.546667v-384M512 718.933333L213.333333 550.826667v-333.653334l298.666667-168.106666 298.666667 168.106666V550.826667l-298.666667 168.106666z"  horiz-adv-x="1024" />

    
    <glyph glyph-name="arrow-expand-all" unicode="&#58955;" d="M405.333333 337.493333l60.16-60.16-192-192H426.666667v-85.333333H128v298.666667h85.333333v-153.173334l192 192m60.16 153.173334L405.333333 430.506667 213.333333 622.506667V469.333333H128V768h298.666667v-85.333333H273.493333l192-192m153.173334-153.173334l192-192V298.666667h85.333333v-298.666667h-298.666667v85.333333h153.173334l-192 192 60.16 60.16M558.506667 490.666667l192 192H597.333333V768h298.666667v-298.666667h-85.333333V622.506667l-192-192-60.16 60.16z"  horiz-adv-x="1024" />

    
    <glyph glyph-name="arrow-left" unicode="&#58956;" d="M853.333333 426.666667v-85.333334H341.333333l234.666667-234.666666-60.586667-60.586667L177.493333 384l337.92 337.92L576 661.333333 341.333333 426.666667h512z"  horiz-adv-x="1024" />

    
    <glyph glyph-name="arrow-left-bold" unicode="&#58957;" d="M853.333333 469.333333v-170.666666h-384l149.333334-149.333334-103.253334-103.253333L177.493333 384l337.92 337.92L618.666667 618.666667 469.333333 469.333333h384z"  horiz-adv-x="1024" />

    
    <glyph glyph-name="arrow-left-bold-circle" unicode="&#58958;" d="M938.666667 384a426.666667 426.666667 0 0 0-426.666667-426.666667A426.666667 426.666667 0 0 0 85.333333 384 426.666667 426.666667 0 0 0 512 810.666667a426.666667 426.666667 0 0 0 426.666667-426.666667M298.666667 384l213.333333-213.333333v128h170.666667v170.666666h-170.666667V597.333333l-213.333333-213.333333z"  horiz-adv-x="1024" />

    
    <glyph glyph-name="arrow-left-bold-circle-outline" unicode="&#58959;" d="M298.666667 384l213.333333 213.333333v-128h170.666667v-170.666666h-170.666667v-128l-213.333333 213.333333m640 0a426.666667 426.666667 0 0 0-426.666667-426.666667A426.666667 426.666667 0 0 0 85.333333 384 426.666667 426.666667 0 0 0 512 810.666667a426.666667 426.666667 0 0 0 426.666667-426.666667m-85.333334 0a341.333333 341.333333 0 0 1-341.333333 341.333333 341.333333 341.333333 0 0 1-341.333333-341.333333 341.333333 341.333333 0 0 1 341.333333-341.333333 341.333333 341.333333 0 0 1 341.333333 341.333333z"  horiz-adv-x="1024" />

    
    <glyph glyph-name="arrow-left-bold-hexagon-outline" unicode="&#58960;" d="M298.666667 384l213.333333 213.333333v-128h170.666667v-170.666666h-170.666667v-128l-213.333333 213.333333m597.333333-192c0-16.213333-8.96-30.293333-22.613333-37.546667l-337.066667-189.44c-6.826667-5.12-15.36-7.68-24.32-7.68-8.96 0-17.493333 2.56-24.32 7.68l-337.066667 189.44A42.282667 42.282667 0 0 0 128 192v384c0 16.213333 8.96 30.293333 22.613333 37.546667l337.066667 189.44c6.826667 5.12 15.36 7.68 24.32 7.68 8.96 0 17.493333-2.56 24.32-7.68l337.066667-189.44c13.653333-7.253333 22.613333-21.333333 22.613333-37.546667v-384M512 718.933333L213.333333 550.826667v-333.653334l298.666667-168.106666 298.666667 168.106666V550.826667l-298.666667 168.106666z"  horiz-adv-x="1024" />

    
    <glyph glyph-name="arrow-left-box" unicode="&#58961;" d="M810.666667 768a85.333333 85.333333 0 0 0 85.333333-85.333333v-597.333334a85.333333 85.333333 0 0 0-85.333333-85.333333H213.333333a85.333333 85.333333 0 0 0-85.333333 85.333333V682.666667a85.333333 85.333333 0 0 0 85.333333 85.333333h597.333334m-42.666667-341.333333H405.333333L554.666667 576l-60.586667 60.586667L241.493333 384l252.586667-252.586667L554.666667 192 405.333333 341.333333H768v85.333334z"  horiz-adv-x="1024" />

    
    <glyph glyph-name="arrow-left-drop-circle" unicode="&#58962;" d="M938.666667 384a426.666667 426.666667 0 0 0-426.666667-426.666667A426.666667 426.666667 0 0 0 85.333333 384 426.666667 426.666667 0 0 0 512 810.666667a426.666667 426.666667 0 0 0 426.666667-426.666667m-341.333334 213.333333l-213.333333-213.333333 213.333333-213.333333V597.333333z"  horiz-adv-x="1024" />

    
    <glyph glyph-name="arrow-left-drop-circle-outline" unicode="&#58963;" d="M938.666667 384A426.666667 426.666667 0 0 1 512 810.666667 426.666667 426.666667 0 0 1 85.333333 384a426.666667 426.666667 0 0 1 426.666667-426.666667 426.666667 426.666667 0 0 1 426.666667 426.666667m-85.333334 0a341.333333 341.333333 0 0 0-341.333333-341.333333 341.333333 341.333333 0 0 0-341.333333 341.333333 341.333333 341.333333 0 0 0 341.333333 341.333333 341.333333 341.333333 0 0 0 341.333333-341.333333m-256 213.333333l-213.333333-213.333333 213.333333-213.333333V597.333333z"  horiz-adv-x="1024" />

    
    <glyph glyph-name="arrow-right" unicode="&#58964;" d="M170.666667 426.666667v-85.333334h512l-234.666667-234.666666 60.586667-60.586667L846.506667 384l-337.92 337.92L448 661.333333 682.666667 426.666667H170.666667z"  horiz-adv-x="1024" />

    
    <glyph glyph-name="arrow-right-bold-circle" unicode="&#58965;" d="M85.333333 384A426.666667 426.666667 0 0 0 512 810.666667a426.666667 426.666667 0 0 0 426.666667-426.666667 426.666667 426.666667 0 0 0-426.666667-426.666667A426.666667 426.666667 0 0 0 85.333333 384m640 0l-213.333333 213.333333v-128H341.333333v-170.666666h170.666667v-128l213.333333 213.333333z"  horiz-adv-x="1024" />

    
    <glyph glyph-name="arrow-right-bold" unicode="&#58966;" d="M170.666667 469.333333v-170.666666h384l-149.333334-149.333334 103.253334-103.253333L846.506667 384l-337.92 337.92L405.333333 618.666667 554.666667 469.333333H170.666667z"  horiz-adv-x="1024" />

    
    <glyph glyph-name="arrow-right-bold-circle-outline" unicode="&#58967;" d="M725.333333 384l-213.333333-213.333333v128H341.333333v170.666666h170.666667V597.333333l213.333333-213.333333M85.333333 384A426.666667 426.666667 0 0 0 512 810.666667a426.666667 426.666667 0 0 0 426.666667-426.666667 426.666667 426.666667 0 0 0-426.666667-426.666667A426.666667 426.666667 0 0 0 85.333333 384m85.333334 0a341.333333 341.333333 0 0 1 341.333333-341.333333 341.333333 341.333333 0 0 1 341.333333 341.333333 341.333333 341.333333 0 0 1-341.333333 341.333333 341.333333 341.333333 0 0 1-341.333333-341.333333z"  horiz-adv-x="1024" />

    
    <glyph glyph-name="arrow-right-box" unicode="&#58968;" d="M213.333333 0a85.333333 85.333333 0 0 0-85.333333 85.333333V682.666667a85.333333 85.333333 0 0 0 85.333333 85.333333h597.333334a85.333333 85.333333 0 0 0 85.333333-85.333333v-597.333334a85.333333 85.333333 0 0 0-85.333333-85.333333H213.333333m42.666667 341.333333h362.666667L469.333333 192l60.586667-60.586667L782.506667 384l-252.586667 252.586667L469.333333 576l149.333334-149.333333H256v-85.333334z"  horiz-adv-x="1024" />

    
    <glyph glyph-name="arrow-right-bold-hexagon-outline" unicode="&#58969;" d="M725.333333 384l-213.333333-213.333333v128H341.333333v170.666666h170.666667V597.333333l213.333333-213.333333m170.666667-192c0-16.213333-8.96-30.293333-22.613333-37.546667l-337.066667-189.44c-6.826667-5.12-15.36-7.68-24.32-7.68-8.96 0-17.493333 2.56-24.32 7.68l-337.066667 189.44A42.282667 42.282667 0 0 0 128 192v384c0 16.213333 8.96 30.293333 22.613333 37.546667l337.066667 189.44c6.826667 5.12 15.36 7.68 24.32 7.68 8.96 0 17.493333-2.56 24.32-7.68l337.066667-189.44c13.653333-7.253333 22.613333-21.333333 22.613333-37.546667v-384M512 718.933333L213.333333 550.826667v-333.653334l298.666667-168.106666 298.666667 168.106666V550.826667l-298.666667 168.106666z"  horiz-adv-x="1024" />

    
    <glyph glyph-name="arrow-right-drop-circle" unicode="&#58970;" d="M85.333333 384A426.666667 426.666667 0 0 0 512 810.666667a426.666667 426.666667 0 0 0 426.666667-426.666667 426.666667 426.666667 0 0 0-426.666667-426.666667A426.666667 426.666667 0 0 0 85.333333 384m341.333334-213.333333l213.333333 213.333333-213.333333 213.333333v-426.666666z"  horiz-adv-x="1024" />

    
    <glyph glyph-name="arrow-right-drop-circle-outline" unicode="&#58971;" d="M85.333333 384a426.666667 426.666667 0 0 1 426.666667-426.666667 426.666667 426.666667 0 0 1 426.666667 426.666667A426.666667 426.666667 0 0 1 512 810.666667 426.666667 426.666667 0 0 1 85.333333 384m85.333334 0a341.333333 341.333333 0 0 0 341.333333 341.333333 341.333333 341.333333 0 0 0 341.333333-341.333333 341.333333 341.333333 0 0 0-341.333333-341.333333 341.333333 341.333333 0 0 0-341.333333 341.333333m256-213.333333l213.333333 213.333333-213.333333 213.333333v-426.666666z"  horiz-adv-x="1024" />

    
    <glyph glyph-name="arrow-top-right" unicode="&#58972;" d="M213.333333 145.493333L665.173333 597.333333H384V682.666667h426.666667v-426.666667h-85.333334V537.173333L273.493333 85.333333 213.333333 145.493333z"  horiz-adv-x="1024" />

    
    <glyph glyph-name="arrow-up" unicode="&#58973;" d="M554.666667 42.666667h-85.333334V554.666667l-234.666666-234.666667-60.586667 60.586667L512 718.506667l337.92-337.92-60.586667-60.586667L554.666667 554.666667v-512z"  horiz-adv-x="1024" />

    
    <glyph glyph-name="arrow-up-bold" unicode="&#58974;" d="M597.333333 42.666667h-170.666666v384l-149.333334-149.333334-103.253333 103.253334L512 718.506667l337.92-337.92-103.253333-103.253334L597.333333 426.666667v-384z"  horiz-adv-x="1024" />

    
    <glyph glyph-name="arrow-top-left" unicode="&#58975;" d="M810.666667 145.493333L750.506667 85.333333 298.666667 537.173333V256H213.333333V682.666667h426.666667v-85.333334H358.826667L810.666667 145.493333z"  horiz-adv-x="1024" />

    
    <glyph glyph-name="arrow-up-bold-circle" unicode="&#58976;" d="M512-42.666667A426.666667 426.666667 0 0 0 85.333333 384 426.666667 426.666667 0 0 0 512 810.666667a426.666667 426.666667 0 0 0 426.666667-426.666667 426.666667 426.666667 0 0 0-426.666667-426.666667m0 640l-213.333333-213.333333h128v-170.666667h170.666666v170.666667h128l-213.333333 213.333333z"  horiz-adv-x="1024" />

    
    <glyph glyph-name="arrow-up-bold-circle-outline" unicode="&#58977;" d="M512 597.333333l213.333333-213.333333h-128v-170.666667h-170.666666v170.666667H298.666667l213.333333 213.333333m0-640A426.666667 426.666667 0 0 0 85.333333 384 426.666667 426.666667 0 0 0 512 810.666667a426.666667 426.666667 0 0 0 426.666667-426.666667 426.666667 426.666667 0 0 0-426.666667-426.666667m0 85.333334a341.333333 341.333333 0 0 1 341.333333 341.333333 341.333333 341.333333 0 0 1-341.333333 341.333333 341.333333 341.333333 0 0 1-341.333333-341.333333 341.333333 341.333333 0 0 1 341.333333-341.333333z"  horiz-adv-x="1024" />

    
    <glyph glyph-name="arrow-up-bold-hexagon-outline" unicode="&#58978;" d="M512 597.333333l213.333333-213.333333h-128v-170.666667h-170.666666v170.666667H298.666667l213.333333 213.333333m384-405.333333c0-16.213333-8.96-30.293333-22.613333-37.546667l-337.066667-189.44c-6.826667-5.12-15.36-7.68-24.32-7.68-8.96 0-17.493333 2.56-24.32 7.68l-337.066667 189.44A42.282667 42.282667 0 0 0 128 192v384c0 16.213333 8.96 30.293333 22.613333 37.546667l337.066667 189.44c6.826667 5.12 15.36 7.68 24.32 7.68 8.96 0 17.493333-2.56 24.32-7.68l337.066667-189.44c13.653333-7.253333 22.613333-21.333333 22.613333-37.546667v-384M512 718.933333L213.333333 550.826667v-333.653334l298.666667-168.106666 298.666667 168.106666V550.826667l-298.666667 168.106666z"  horiz-adv-x="1024" />

    
    <glyph glyph-name="arrow-up-box" unicode="&#58979;" d="M896 85.333333a85.333333 85.333333 0 0 0-85.333333-85.333333H213.333333a85.333333 85.333333 0 0 0-85.333333 85.333333V682.666667a85.333333 85.333333 0 0 0 85.333333 85.333333h597.333334a85.333333 85.333333 0 0 0 85.333333-85.333333v-597.333334m-341.333333 42.666667V490.666667l149.333333-149.333334 60.586667 60.586667L512 654.506667l-252.586667-252.586667L320 341.333333 469.333333 490.666667V128h85.333334z"  horiz-adv-x="1024" />

    
    <glyph glyph-name="album" unicode="&#58980;" d="M512 426.666667a42.666667 42.666667 0 0 1-42.666667-42.666667 42.666667 42.666667 0 0 1 42.666667-42.666667 42.666667 42.666667 0 0 1 42.666667 42.666667 42.666667 42.666667 0 0 1-42.666667 42.666667m0-234.666667c-106.666667 0-192 85.333333-192 192s85.333333 192 192 192 192-85.333333 192-192-85.333333-192-192-192M512 810.666667A426.666667 426.666667 0 0 1 85.333333 384a426.666667 426.666667 0 0 1 426.666667-426.666667 426.666667 426.666667 0 0 1 426.666667 426.666667A426.666667 426.666667 0 0 1 512 810.666667z"  horiz-adv-x="1024" />

    
    <glyph glyph-name="assistant" unicode="&#58981;" d="M810.666667 810.666667H213.333333a85.333333 85.333333 0 0 1-85.333333-85.333334v-597.333333a85.333333 85.333333 0 0 1 85.333333-85.333333h170.666667l128-128 128 128h170.666667a85.333333 85.333333 0 0 1 85.333333 85.333333V725.333333a85.333333 85.333333 0 0 1-85.333333 85.333334m-218.453334-464.213334L512 170.666667l-80.213333 175.786666L256 426.666667l175.786667 80.213333L512 682.666667l80.213333-175.786667L768 426.666667"  horiz-adv-x="1024" />

    
    <glyph glyph-name="arrow-up-drop-circle-outline" unicode="&#58982;" d="M512-42.666667a426.666667 426.666667 0 0 1 426.666667 426.666667A426.666667 426.666667 0 0 1 512 810.666667 426.666667 426.666667 0 0 1 85.333333 384a426.666667 426.666667 0 0 1 426.666667-426.666667m0 85.333334a341.333333 341.333333 0 0 0-341.333333 341.333333 341.333333 341.333333 0 0 0 341.333333 341.333333 341.333333 341.333333 0 0 0 341.333333-341.333333 341.333333 341.333333 0 0 0-341.333333-341.333333m213.333333 256l-213.333333 213.333333-213.333333-213.333333h426.666666z"  horiz-adv-x="1024" />

    
    <glyph glyph-name="arrow-up-drop-circle" unicode="&#58983;" d="M512-42.666667A426.666667 426.666667 0 0 0 85.333333 384 426.666667 426.666667 0 0 0 512 810.666667a426.666667 426.666667 0 0 0 426.666667-426.666667 426.666667 426.666667 0 0 0-426.666667-426.666667m213.333333 341.333334l-213.333333 213.333333-213.333333-213.333333h426.666666z"  horiz-adv-x="1024" />

    
    <glyph glyph-name="attachment" unicode="&#58984;" d="M320 128A234.666667 234.666667 0 0 0 85.333333 362.666667 234.666667 234.666667 0 0 0 320 597.333333H768a170.666667 170.666667 0 0 0 170.666667-170.666666 170.666667 170.666667 0 0 0-170.666667-170.666667H405.333333A106.666667 106.666667 0 0 0 298.666667 362.666667 106.666667 106.666667 0 0 0 405.333333 469.333333H725.333333v-64H405.333333a42.666667 42.666667 0 0 1-42.666666-42.666666 42.666667 42.666667 0 0 1 42.666666-42.666667H768a106.666667 106.666667 0 0 1 106.666667 106.666667A106.666667 106.666667 0 0 1 768 533.333333H320a170.666667 170.666667 0 0 1-170.666667-170.666666 170.666667 170.666667 0 0 1 170.666667-170.666667H725.333333V128H320z"  horiz-adv-x="1024" />

    
    <glyph glyph-name="auto-upload" unicode="&#58989;" d="M228.266667 356.266667L277.333333 512l49.066667-155.733333M234.666667 597.333333l-136.533334-384h81.066667l29.866667 85.333334h136.533333l29.866667-85.333334h81.066666L320 597.333333M469.333333 42.666667h469.333334v85.333333H469.333333m128 85.333333h213.333334v213.333334h128l-234.666667 234.666666L469.333333 426.666667h128v-213.333334z"  horiz-adv-x="1024" />

    
    <glyph glyph-name="autorenew" unicode="&#58990;" d="M512 640v-128l170.666667 170.666667-170.666667 170.666666v-128a341.333333 341.333333 0 0 1-341.333333-341.333333c0-66.986667 19.626667-129.28 52.906666-181.76L285.866667 264.533333A251.733333 251.733333 0 0 0 256 384a256 256 0 0 0 256 256m288.426667-74.24L738.133333 503.466667c18.773333-35.84 29.866667-76.8 29.866667-119.466667a256 256 0 0 0-256-256v128l-170.666667-170.666667 170.666667-170.666666v128a341.333333 341.333333 0 0 1 341.333333 341.333333c0 66.986667-19.626667 129.28-52.906666 181.76z"  horiz-adv-x="1024" />

    
    <glyph glyph-name="av-timer" unicode="&#58991;" d="M469.333333 170.666667a42.666667 42.666667 0 0 1 42.666667-42.666667 42.666667 42.666667 0 0 1 42.666667 42.666667 42.666667 42.666667 0 0 1-42.666667 42.666666 42.666667 42.666667 0 0 1-42.666667-42.666666m0 597.333333v-170.666667h85.333334V679.253333c144.64-20.906667 256-144.64 256-295.253333a298.666667 298.666667 0 0 0-298.666667-298.666667 298.666667 298.666667 0 0 0-298.666667 298.666667c0 71.68 25.173333 137.386667 67.413334 188.586667L512 341.333333l60.16 60.16-290.133333 290.133334v-0.853334C188.586667 620.8 128 509.866667 128 384a384 384 0 0 1 384-384 384 384 0 0 1 384 384 384 384 0 0 1-384 384m256-384a42.666667 42.666667 0 0 1-42.666667 42.666667 42.666667 42.666667 0 0 1-42.666666-42.666667 42.666667 42.666667 0 0 1 42.666666-42.666667 42.666667 42.666667 0 0 1 42.666667 42.666667M256 384a42.666667 42.666667 0 0 1 42.666667-42.666667 42.666667 42.666667 0 0 1 42.666666 42.666667 42.666667 42.666667 0 0 1-42.666666 42.666667 42.666667 42.666667 0 0 1-42.666667-42.666667z"  horiz-adv-x="1024" />

    
    <glyph glyph-name="backspace" unicode="&#58992;" d="M938.666667 768H298.666667c-29.44 0-52.48-14.933333-67.84-37.546667L0 384l230.826667-346.026667c15.36-22.613333 38.4-37.973333 67.84-37.973333h640a85.333333 85.333333 0 0 1 85.333333 85.333333V682.666667a85.333333 85.333333 0 0 1-85.333333 85.333333m-128-537.173333L750.506667 170.666667 597.333333 323.84 444.16 170.666667 384 230.826667 537.173333 384 384 537.173333 444.16 597.333333 597.333333 444.16 750.506667 597.333333 810.666667 537.173333 657.493333 384"  horiz-adv-x="1024" />

    
    <glyph glyph-name="backburger" unicode="&#58993;" d="M213.333333 341.333333l170.666667-170.666666-59.733333-60.586667L50.346667 384 324.266667 657.92 384 597.333333l-170.666667-170.666666h682.666667v-85.333334H213.333333m682.666667 298.666667v-85.333333H469.333333V640h426.666667m0-426.666667v-85.333333H469.333333v85.333333h426.666667z"  horiz-adv-x="1024" />

    
    <glyph glyph-name="bandcamp" unicode="&#58996;" d="M938.666667 640l-277.333334-512H85.333333L362.666667 640H938.666667z"  horiz-adv-x="1024" />

    
    <glyph glyph-name="backup-restore" unicode="&#58998;" d="M512 768a384 384 0 0 1-384-384H0l170.666667-170.666667 170.666666 170.666667H213.333333a298.666667 298.666667 0 0 0 298.666667 298.666667 298.666667 298.666667 0 0 0 298.666667-298.666667 298.666667 298.666667 0 0 0-298.666667-298.666667c-64 0-124.16 21.333333-173.226667 55.466667L277.333333 79.36A388.906667 388.906667 0 0 1 512 0a384 384 0 0 1 384 384 384 384 0 0 1-384 384m85.333333-384a85.333333 85.333333 0 0 1-85.333333 85.333333 85.333333 85.333333 0 0 1-85.333333-85.333333 85.333333 85.333333 0 0 1 85.333333-85.333333 85.333333 85.333333 0 0 1 85.333333 85.333333z"  horiz-adv-x="1024" />

    
    <glyph glyph-name="barcode-scan" unicode="&#59000;" d="M170.666667 640h85.333333v-512H170.666667V640m128 0h42.666666v-512H298.666667V640m85.333333 0h128v-512H384V640m170.666667 0h42.666666v-512h-42.666666V640m128 0h85.333333v-512h-85.333333V640m128 0h42.666666v-512h-42.666666V640M85.333333 725.333333v-170.666666H0V725.333333a85.333333 85.333333 0 0 0 85.333333 85.333334h170.666667v-85.333334H85.333333m853.333334 85.333334a85.333333 85.333333 0 0 0 85.333333-85.333334v-170.666666h-85.333333V725.333333h-170.666667V810.666667h170.666667M85.333333 213.333333v-170.666666h170.666667v-85.333334H85.333333a85.333333 85.333333 0 0 0-85.333333 85.333334v170.666666h85.333333m853.333334-170.666666v170.666666h85.333333v-170.666666a85.333333 85.333333 0 0 0-85.333333-85.333334h-170.666667v85.333334h170.666667z"  horiz-adv-x="1024" />

    
    <glyph glyph-name="barcode" unicode="&#59001;" d="M85.333333 640h85.333334v-512H85.333333V640m128 0h42.666667v-512H213.333333V640m85.333334 0h128v-512H298.666667V640m170.666666 0h42.666667v-512h-42.666667V640m128 0h85.333334v-512h-85.333334V640m128 0h128v-512h-128V640m170.666667 0h42.666667v-512h-42.666667V640z"  horiz-adv-x="1024" />

    
    <glyph glyph-name="barrel" unicode="&#59003;" d="M768 85.333333h42.666667v-85.333333H213.333333v85.333333h42.666667v256H213.333333v85.333334h42.666667V682.666667H213.333333V768h597.333334v-85.333333h-42.666667v-256h42.666667v-85.333334h-42.666667v-256m-384 256a128 128 0 0 1 128-128 128 128 0 0 1 128 128c0 85.333333-128 229.12-128 229.12S384 426.666667 384 341.333333z"  horiz-adv-x="1024" />

    
    <glyph glyph-name="basket" unicode="&#59005;" d="M234.666667 0c-33.28 0-62.293333 19.2-76.373334 46.933333L46.933333 450.56 42.666667 469.333333a42.666667 42.666667 0 0 0 42.666666 42.666667h195.413334l196.266666 280.32a42.538667 42.538667 0 0 0 70.4-0.426667L743.253333 512H938.666667a42.666667 42.666667 0 0 0 42.666666-42.666667l-1.706666-12.373333-113.92-410.026667c-14.08-27.733333-43.093333-46.933333-76.373334-46.933333h-554.666666M512 693.76L384 512h256l-128 181.76M512 341.333333a85.333333 85.333333 0 0 1-85.333333-85.333333 85.333333 85.333333 0 0 1 85.333333-85.333333 85.333333 85.333333 0 0 1 85.333333 85.333333 85.333333 85.333333 0 0 1-85.333333 85.333333z"  horiz-adv-x="1024" />

    
    <glyph glyph-name="battery" unicode="&#59007;" d="M711.253333 725.333333H640V810.666667H384v-85.333334H312.746667A56.746667 56.746667 0 0 1 256 668.586667v-654.506667C256-17.066667 281.6-42.666667 312.746667-42.666667h398.506666A56.746667 56.746667 0 0 1 768 14.08V668.586667C768 699.733333 742.4 725.333333 711.253333 725.333333z"  horiz-adv-x="1024" />

    
    <glyph glyph-name="battery-" unicode="&#59009;" d="M682.666667 128H341.333333V640h341.333334m28.586666 85.333333H640V810.666667H384v-85.333334H312.746667A56.746667 56.746667 0 0 1 256 668.586667v-654.506667C256-17.066667 281.6-42.666667 312.746667-42.666667h398.506666A56.746667 56.746667 0 0 1 768 14.08V668.586667C768 699.733333 742.4 725.333333 711.253333 725.333333z"  horiz-adv-x="1024" />

    
    <glyph glyph-name="battery-1" unicode="&#59010;" d="M682.666667 170.666667H341.333333V640h341.333334m28.586666 85.333333H640V810.666667H384v-85.333334H312.746667A56.746667 56.746667 0 0 1 256 668.586667v-654.506667C256-17.066667 281.6-42.666667 312.746667-42.666667h398.506666A56.746667 56.746667 0 0 1 768 14.08V668.586667C768 699.733333 742.4 725.333333 711.253333 725.333333z"  horiz-adv-x="1024" />

    
    <glyph glyph-name="battery-2" unicode="&#59011;" d="M682.666667 256H341.333333V640h341.333334m28.586666 85.333333H640V810.666667H384v-85.333334H312.746667A56.746667 56.746667 0 0 1 256 668.586667v-654.506667C256-17.066667 281.6-42.666667 312.746667-42.666667h398.506666A56.746667 56.746667 0 0 1 768 14.08V668.586667C768 699.733333 742.4 725.333333 711.253333 725.333333z"  horiz-adv-x="1024" />

    
    <glyph glyph-name="battery-3" unicode="&#59012;" d="M682.666667 298.666667H341.333333V640h341.333334m28.586666 85.333333H640V810.666667H384v-85.333334H312.746667A56.746667 56.746667 0 0 1 256 668.586667v-654.506667C256-17.066667 281.6-42.666667 312.746667-42.666667h398.506666A56.746667 56.746667 0 0 1 768 14.08V668.586667C768 699.733333 742.4 725.333333 711.253333 725.333333z"  horiz-adv-x="1024" />

    
    <glyph glyph-name="battery-4" unicode="&#59013;" d="M682.666667 384H341.333333V640h341.333334m28.586666 85.333333H640V810.666667H384v-85.333334H312.746667A56.746667 56.746667 0 0 1 256 668.586667v-654.506667C256-17.066667 281.6-42.666667 312.746667-42.666667h398.506666A56.746667 56.746667 0 0 1 768 14.08V668.586667C768 699.733333 742.4 725.333333 711.253333 725.333333z"  horiz-adv-x="1024" />

    
    <glyph glyph-name="battery-5" unicode="&#59014;" d="M682.666667 341.333333H341.333333V640h341.333334m28.586666 85.333333H640V810.666667H384v-85.333334H312.746667A56.746667 56.746667 0 0 1 256 668.586667v-654.506667C256-17.066667 281.6-42.666667 312.746667-42.666667h398.506666A56.746667 56.746667 0 0 1 768 14.08V668.586667C768 699.733333 742.4 725.333333 711.253333 725.333333z"  horiz-adv-x="1024" />

    
    <glyph glyph-name="battery-6" unicode="&#59015;" d="M682.666667 469.333333H341.333333V640h341.333334m28.586666 85.333333H640V810.666667H384v-85.333334H312.746667A56.746667 56.746667 0 0 1 256 668.586667v-654.506667C256-17.066667 281.6-42.666667 312.746667-42.666667h398.506666A56.746667 56.746667 0 0 1 768 14.08V668.586667C768 699.733333 742.4 725.333333 711.253333 725.333333z"  horiz-adv-x="1024" />

    
    <glyph glyph-name="battery-7" unicode="&#59016;" d="M682.666667 512H341.333333V640h341.333334m28.586666 85.333333H640V810.666667H384v-85.333334H312.746667A56.746667 56.746667 0 0 1 256 668.586667v-654.506667C256-17.066667 281.6-42.666667 312.746667-42.666667h398.506666A56.746667 56.746667 0 0 1 768 14.08V668.586667C768 699.733333 742.4 725.333333 711.253333 725.333333z"  horiz-adv-x="1024" />

    
    <glyph glyph-name="battery-8" unicode="&#59017;" d="M682.666667 554.666667H341.333333V640h341.333334m28.586666 85.333333H640V810.666667H384v-85.333334H312.746667A56.746667 56.746667 0 0 1 256 668.586667v-654.506667C256-17.066667 281.6-42.666667 312.746667-42.666667h398.506666A56.746667 56.746667 0 0 1 768 14.08V668.586667C768 699.733333 742.4 725.333333 711.253333 725.333333z"  horiz-adv-x="1024" />

    
    <glyph glyph-name="battery-charging-" unicode="&#59018;" d="M983.466667 426.666667h-128V725.333333l-213.333334-426.666666h128v-341.333334m-256 213.333334h-341.333333V640h341.333333m28.586667 85.333333h-71.253333V810.666667h-256v-85.333334H144.213333a56.746667 56.746667 0 0 1-56.746666-56.746666v-654.506667c0-31.146667 25.6-56.746667 56.746666-56.746667h398.506667c31.146667 0 56.746667 25.6 56.746667 56.746667V668.586667A56.746667 56.746667 0 0 1 542.72 725.333333z"  horiz-adv-x="1024" />

    
    <glyph glyph-name="battery-alert" unicode="&#59019;" d="M554.666667 298.666667h-85.333334V512h85.333334m0-384h-85.333334v85.333333h85.333334m156.586666 512H640V810.666667H384v-85.333334H312.746667A56.746667 56.746667 0 0 1 256 668.586667v-654.506667C256-17.066667 281.6-42.666667 312.746667-42.666667h398.506666A56.746667 56.746667 0 0 1 768 14.08V668.586667C768 699.733333 742.4 725.333333 711.253333 725.333333z"  horiz-adv-x="1024" />

    
    <glyph glyph-name="battery-charging" unicode="&#59020;" d="M711.253333 725.333333H640V810.666667H384v-85.333334H312.746667A56.746667 56.746667 0 0 1 256 668.586667v-654.08C256-17.066667 281.6-42.666667 312.746667-42.666667h398.08c31.573333 0 57.173333 25.6 57.173333 56.746667V668.586667C768 699.733333 742.4 725.333333 711.253333 725.333333M469.333333 42.666667v234.666666H384L554.666667 597.333333v-234.666666h85.333333"  horiz-adv-x="1024" />

    
    <glyph glyph-name="battery-charging-1" unicode="&#59021;" d="M512 256H170.666667V640h341.333333m28.586667 85.333333H469.333333V810.666667H213.333333v-85.333334H142.08A56.746667 56.746667 0 0 1 85.333333 668.586667v-654.506667C85.333333-17.066667 110.933333-42.666667 142.08-42.666667h398.506667c31.146667 0 56.746667 25.6 56.746666 56.746667V668.586667A56.746667 56.746667 0 0 1 540.586667 725.333333M981.333333 426.666667h-128V725.333333l-213.333333-426.666666h128v-341.333334l213.333333 469.333334z"  horiz-adv-x="1024" />

    
    <glyph glyph-name="battery-charging-2" unicode="&#59022;" d="M512 426.666667H170.666667V640h341.333333m28.586667 85.333333H469.333333V810.666667H213.333333v-85.333334H142.08A56.746667 56.746667 0 0 1 85.333333 668.586667v-654.506667C85.333333-17.066667 110.933333-42.666667 142.08-42.666667h398.506667c31.146667 0 56.746667 25.6 56.746666 56.746667V668.586667A56.746667 56.746667 0 0 1 540.586667 725.333333M981.333333 426.666667h-128V725.333333l-213.333333-426.666666h128v-341.333334l213.333333 469.333334z"  horiz-adv-x="1024" />

    
    <glyph glyph-name="battery-charging-3" unicode="&#59023;" d="M981.333333 426.666667h-128V725.333333l-213.333333-426.666666h128v-341.333334m-256 384H170.666667V640h341.333333m28.586667 85.333333H469.333333V810.666667H213.333333v-85.333334H142.08A56.746667 56.746667 0 0 1 85.333333 668.586667v-654.506667C85.333333-17.066667 110.933333-42.666667 142.08-42.666667h398.506667c31.146667 0 56.746667 25.6 56.746666 56.746667V668.586667A56.746667 56.746667 0 0 1 540.586667 725.333333z"  horiz-adv-x="1024" />

    
    <glyph glyph-name="battery-charging-4" unicode="&#59024;" d="M981.333333 426.666667h-128V725.333333l-213.333333-426.666666h128v-341.333334M540.586667 725.333333H469.333333V810.666667H213.333333v-85.333334H142.08A56.746667 56.746667 0 0 1 85.333333 668.586667v-654.506667C85.333333-17.066667 110.933333-42.666667 142.08-42.666667h398.506667c31.146667 0 56.746667 25.6 56.746666 56.746667V668.586667A56.746667 56.746667 0 0 1 540.586667 725.333333z"  horiz-adv-x="1024" />

    
    <glyph glyph-name="battery-charging-5" unicode="&#59025;" d="M981.333333 426.666667h-128V725.333333l-213.333333-426.666666h128v-341.333334M512 554.666667H170.666667V640h341.333333m28.586667 85.333333H469.333333V810.666667H213.333333v-85.333334H142.08A56.746667 56.746667 0 0 1 85.333333 668.586667v-654.506667C85.333333-17.066667 110.933333-42.666667 142.08-42.666667h398.506667c31.146667 0 56.746667 25.6 56.746666 56.746667V668.586667A56.746667 56.746667 0 0 1 540.586667 725.333333z"  horiz-adv-x="1024" />

    
    <glyph glyph-name="battery-charging-6" unicode="&#59026;" d="M981.333333 426.666667h-128V725.333333l-213.333333-426.666666h128v-341.333334M512 512H170.666667V640h341.333333m28.586667 85.333333H469.333333V810.666667H213.333333v-85.333334H142.08A56.746667 56.746667 0 0 1 85.333333 668.586667v-654.506667C85.333333-17.066667 110.933333-42.666667 142.08-42.666667h398.506667c31.146667 0 56.746667 25.6 56.746666 56.746667V668.586667A56.746667 56.746667 0 0 1 540.586667 725.333333z"  horiz-adv-x="1024" />

    
    <glyph glyph-name="battery-minus" unicode="&#59027;" d="M711.253333 725.333333C742.4 725.333333 768 699.733333 768 668.586667v-654.506667A56.746667 56.746667 0 0 0 711.253333-42.666667H312.746667C281.6-42.666667 256-17.066667 256 14.08V668.586667A56.746667 56.746667 0 0 0 312.746667 725.333333H384V810.666667h256v-85.333334h71.253333M341.333333 384v-85.333333h341.333334v85.333333"  horiz-adv-x="1024" />

    
    <glyph glyph-name="battery-outline" unicode="&#59028;" d="M682.666667 42.666667H341.333333V640h341.333334m28.586666 85.333333H640V810.666667H384v-85.333334H312.746667A56.746667 56.746667 0 0 1 256 668.586667v-654.506667C256-17.066667 281.6-42.666667 312.746667-42.666667h398.506666A56.746667 56.746667 0 0 1 768 14.08V668.586667C768 699.733333 742.4 725.333333 711.253333 725.333333z"  horiz-adv-x="1024" />

    
    <glyph glyph-name="battery-negative" unicode="&#59029;" d="M497.92 725.333333A56.746667 56.746667 0 0 0 554.666667 668.586667v-654.506667c0-31.146667-25.6-56.746667-56.746667-56.746667H99.413333C68.266667-42.666667 42.666667-17.066667 42.666667 14.08V668.586667A56.746667 56.746667 0 0 0 99.413333 725.333333H170.666667V810.666667h256v-85.333334h71.253333M640 384h341.333333v-85.333333h-341.333333v85.333333M128 341.333333h341.333333V640H128v-298.666667z"  horiz-adv-x="1024" />

    
    <glyph glyph-name="battery-positive" unicode="&#59030;" d="M497.92 725.333333A56.746667 56.746667 0 0 0 554.666667 668.586667v-654.506667c0-31.146667-25.6-56.746667-56.746667-56.746667H99.413333C68.266667-42.666667 42.666667-17.066667 42.666667 14.08V668.586667A56.746667 56.746667 0 0 0 99.413333 725.333333H170.666667V810.666667h256v-85.333334h71.253333M981.333333 298.666667h-128v-128h-85.333333v128h-128v85.333333h128V512h85.333333v-128h128v-85.333333M128 341.333333h341.333333V640H128v-298.666667z"  horiz-adv-x="1024" />

    
    <glyph glyph-name="battery-plus" unicode="&#59031;" d="M711.253333 725.333333C742.4 725.333333 768 699.733333 768 668.586667v-654.506667A56.746667 56.746667 0 0 0 711.253333-42.666667H312.746667C281.6-42.666667 256-17.066667 256 14.08V668.586667A56.746667 56.746667 0 0 0 312.746667 725.333333H384V810.666667h256v-85.333334h71.253333M682.666667 298.666667v85.333333h-128V512h-85.333334v-128H341.333333v-85.333333h128v-128h85.333334v128h128z"  horiz-adv-x="1024" />

    
    <glyph glyph-name="battery-unknown" unicode="&#59032;" d="M642.986667 373.333333l-38.4-39.253333c-23.04-23.04-39.253333-43.093333-46.08-78.08h-87.04c4.693333 38.4 21.76 73.386667 47.786666 99.413333l52.906667 53.76c15.786667 15.36 25.173333 36.693333 25.173333 60.16a85.333333 85.333333 0 0 1-85.333333 85.333334 85.333333 85.333333 0 0 1-85.333333-85.333334H341.333333a170.666667 170.666667 0 0 0 170.666667 170.666667 170.666667 170.666667 0 0 0 170.666667-170.666667c0-37.546667-15.36-71.68-39.68-96M554.666667 85.333333h-85.333334v85.333334h85.333334m156.586666 554.666666H640V810.666667H384v-85.333334H312.746667A56.746667 56.746667 0 0 1 256 668.586667v-654.08C256-17.066667 281.6-42.666667 312.746667-42.666667h398.506666c31.146667 0 56.746667 25.6 56.746667 57.173334V668.586667C768 700.16 742.4 725.333333 711.253333 725.333333z"  horiz-adv-x="1024" />

    
    <glyph glyph-name="beaker" unicode="&#59035;" d="M128 768h768v-85.333333a85.333333 85.333333 0 0 1-85.333333-85.333334v-512a85.333333 85.333333 0 0 0-85.333334-85.333333H298.666667a85.333333 85.333333 0 0 0-85.333334 85.333333V597.333333a85.333333 85.333333 0 0 1-85.333333 85.333334V768m170.666667-85.333333v-85.333334h213.333333v-42.666666H298.666667v-42.666667h128v-42.666667H298.666667v-42.666666h128v-42.666667H298.666667v-42.666667h213.333333v-42.666666H298.666667v-42.666667h128v-42.666667H298.666667v-128h426.666666V682.666667H298.666667z"  horiz-adv-x="1024" />

    
    <glyph glyph-name="bell" unicode="&#59036;" d="M597.333333 42.666667a85.333333 85.333333 0 0 0-85.333333-85.333334 85.333333 85.333333 0 0 0-85.333333 85.333334h170.666666M512 810.666667a42.666667 42.666667 0 0 0 42.666667-42.666667v-46.08c121.173333-20.48 213.333333-125.866667 213.333333-252.586667v-256l128-128H128l128 128v256c0 126.72 92.16 232.106667 213.333333 252.586667V768a42.666667 42.666667 0 0 0 42.666667 42.666667z"  horiz-adv-x="1024" />

    
    <glyph glyph-name="bell-off" unicode="&#59039;" d="M597.333333 42.666667a85.333333 85.333333 0 0 0-85.333333-85.333334 85.333333 85.333333 0 0 0-85.333333 85.333334h170.666666m244.906667-66.986667L732.586667 85.333333H128l128 128v256c0 27.733333 4.266667 54.613333 12.8 79.786667L148.053333 669.866667l60.586667 60.16 102.4-102.4 591.36-591.36-60.16-60.586667M469.333333 721.92V768a42.666667 42.666667 0 0 0 42.666667 42.666667 42.666667 42.666667 0 0 0 42.666667-42.666667v-46.08c121.173333-20.48 213.333333-125.866667 213.333333-252.586667v-177.92L374.186667 685.226667c28.586667 18.773333 60.586667 30.72 95.146666 36.693333z"  horiz-adv-x="1024" />

    
    <glyph glyph-name="bell-plus" unicode="&#59040;" d="M426.666667 0a85.333333 85.333333 0 0 1 85.333333-85.333333 85.333333 85.333333 0 0 1 85.333333 85.333333m208.213334 178.346667V426.666667c0 138.666667-96 254.72-225.706667 285.44v30.72A67.84 67.84 0 0 1 512 810.666667a67.84 67.84 0 0 1-67.84-67.84v-30.72A293.248 293.248 0 0 1 218.453333 426.666667v-248.32L128 87.893333V42.666667h768v45.226666M682.666667 341.333333h-128v-128h-85.333334v128H341.333333v85.333334h128V554.666667h85.333334v-128h128"  horiz-adv-x="1024" />

    
    <glyph glyph-name="bell-outline" unicode="&#59041;" d="M682.666667 170.666667H298.666667v277.333333C298.666667 554.666667 384 640 490.666667 640S682.666667 554.666667 682.666667 448m85.333333-234.666667v234.666667c0 130.986667-91.306667 240.64-213.333333 269.653333V746.666667A64 64 0 0 1 490.666667 810.666667 64 64 0 0 1 426.666667 746.666667v-29.013334c-122.453333-29.013333-213.333333-138.666667-213.333334-269.653333V213.333333l-85.333333-85.333333v-42.666667h725.333333v42.666667m-362.666666-170.666667a85.333333 85.333333 0 0 1 85.333333 85.333334h-170.666667a85.333333 85.333333 0 0 1 85.333334-85.333334z"  horiz-adv-x="1024" />

    
    <glyph glyph-name="bell-ring" unicode="&#59042;" d="M490.666667-42.666667c5.973333 0 11.52 0 17.066666 1.706667A85.76 85.76 0 0 1 576 42.666667h-170.666667a85.333333 85.333333 0 0 1 85.333334-85.333334M768 448c0 130.986667-91.306667 240.64-213.333333 269.653333V746.666667A64 64 0 0 1 490.666667 810.666667 64 64 0 0 1 426.666667 746.666667v-29.013334c-122.453333-29.013333-213.333333-138.666667-213.333334-269.653333V213.333333l-85.333333-85.333333v-42.666667h725.333333v42.666667l-85.333333 85.333333m84.053333 256h85.333334c-6.4 136.96-73.813333 257.28-175.786667 334.933334l-61.013333-61.013334C787.626667 682.666667 845.653333 582.4 852.053333 469.333333M280.746667 743.253333L219.733333 804.266667A451.413333 451.413333 0 0 1 42.666667 469.333333h85.333333c7.68 113.066667 65.706667 213.333333 152.746667 273.92z"  horiz-adv-x="1024" />

    
    <glyph glyph-name="bell-ring-outline" unicode="&#59043;" d="M682.666667 170.666667v277.333333C682.666667 554.666667 597.333333 640 490.666667 640S298.666667 554.666667 298.666667 448V170.666667h384m85.333333 42.666666l85.333333-85.333333v-42.666667H128v42.666667l85.333333 85.333333v234.666667c0 130.986667 90.88 240.64 213.333334 269.653333V746.666667A64 64 0 0 0 490.666667 810.666667 64 64 0 0 0 554.666667 746.666667v-29.013334c122.026667-29.013333 213.333333-138.666667 213.333333-269.653333V213.333333m-277.333333-256a85.333333 85.333333 0 0 0-85.333334 85.333334h170.666667a85.333333 85.333333 0 0 0-85.333333-85.333334m361.386666 512c-6.4 113.066667-64.426667 213.333333-151.466666 273.92l61.013333 61.013334c101.973333-77.653333 169.386667-197.973333 175.786667-334.933334h-85.333334M280.746667 743.253333C193.706667 682.666667 135.68 582.4 128 469.333333H42.666667a451.413333 451.413333 0 0 0 177.066666 334.933334l61.013334-61.013334z"  horiz-adv-x="1024" />

    
    <glyph glyph-name="bell-sleep" unicode="&#59044;" d="M597.333333 477.866667l-119.466666-145.066667H597.333333V256H384v76.8l119.466667 145.066667H384V554.666667h213.333333m170.666667-341.333334v234.666667c0 130.986667-91.306667 240.64-213.333333 269.653333V746.666667A64 64 0 0 1 490.666667 810.666667 64 64 0 0 1 426.666667 746.666667v-29.013334c-122.453333-29.013333-213.333333-138.666667-213.333334-269.653333V213.333333l-85.333333-85.333333v-42.666667h725.333333v42.666667m-362.666666-170.666667a85.333333 85.333333 0 0 1 85.333333 85.333334h-170.666667a85.333333 85.333333 0 0 1 85.333334-85.333334z"  horiz-adv-x="1024" />

    
    <glyph glyph-name="bible" unicode="&#59046;" d="M247.893333 810.666667H298.666667v-298.666667l106.666666 64L512 512V810.666667h256a85.333333 85.333333 0 0 0 85.333333-85.333334v-682.666666c0-44.8-40.533333-85.333333-85.333333-85.333334H256c-44.8 0-85.333333 40.533333-85.333333 85.333334V725.333333c0 42.666667 35.413333 81.493333 77.226666 85.333334M554.666667 469.333333v-128h-128v-85.333333h128v-213.333333h85.333333v213.333333h128v85.333333h-128v128h-85.333333z"  horiz-adv-x="1024" />

    
    <glyph glyph-name="block-helper" unicode="&#59057;" d="M512 896a512 512 0 0 0 512-512 512 512 0 0 0-512-512A512 512 0 0 0 0 384 512 512 0 0 0 512 896m0-85.333333A426.666667 426.666667 0 0 1 85.333333 384c0-102.4 36.266667-196.266667 96.426667-270.08L782.08 714.24A425.984 425.984 0 0 1 512 810.666667m0-853.333334a426.666667 426.666667 0 0 1 426.666667 426.666667c0 102.4-36.266667 196.266667-96.426667 270.08L241.92 53.76A425.984 425.984 0 0 1 512-42.666667z"  horiz-adv-x="1024" />

    
    <glyph glyph-name="book" unicode="&#59072;" d="M768-42.666667a85.333333 85.333333 0 0 1 85.333333 85.333334V725.333333a85.333333 85.333333 0 0 1-85.333333 85.333334h-256v-298.666667L405.333333 576 298.666667 512V810.666667H256a85.333333 85.333333 0 0 1-85.333333-85.333334v-682.666666a85.333333 85.333333 0 0 1 85.333333-85.333334h512z"  horiz-adv-x="1024" />

    
    <glyph glyph-name="bookmark" unicode="&#59073;" d="M725.333333 768H298.666667a85.333333 85.333333 0 0 1-85.333334-85.333333v-682.666667l298.666667 128 298.666667-128V682.666667a85.333333 85.333333 0 0 1-85.333334 85.333333z"  horiz-adv-x="1024" />

    
    <glyph glyph-name="bookmark-check" unicode="&#59074;" d="M725.333333 768a85.333333 85.333333 0 0 0 85.333334-85.333333v-682.666667l-298.666667 128-298.666667-128V682.666667a85.333333 85.333333 0 0 0 85.333334 85.333333h426.666666m-256-469.333333l266.666667 266.24-60.16 60.586666L469.333333 418.986667 358.826667 529.493333 298.666667 469.333333l170.666666-170.666666z"  horiz-adv-x="1024" />

    
    <glyph glyph-name="bookmark-music" unicode="&#59075;" d="M725.333333 768a85.333333 85.333333 0 0 0 85.333334-85.333333v-682.666667l-298.666667 128-298.666667-128V682.666667a85.333333 85.333333 0 0 0 85.333334 85.333333h426.666666m-256-341.333333a85.333333 85.333333 0 0 1-85.333333-85.333334 85.333333 85.333333 0 0 1 85.333333-85.333333 85.333333 85.333333 0 0 1 85.333334 85.333333V554.666667h128V640h-170.666667v-224.853333c-12.373333 7.253333-27.306667 11.52-42.666667 11.52z"  horiz-adv-x="1024" />

    
    <glyph glyph-name="bookmark-plus" unicode="&#59076;" d="M725.333333 768a85.333333 85.333333 0 0 0 85.333334-85.333333v-682.666667l-298.666667 128-298.666667-128V682.666667a85.333333 85.333333 0 0 0 85.333334 85.333333h426.666666m-256-170.666667v-85.333333H384v-85.333333h85.333333v-85.333334h85.333334v85.333334h85.333333V512h-85.333333V597.333333h-85.333334z"  horiz-adv-x="1024" />

    
    <glyph glyph-name="bookmark-plus-outline" unicode="&#59077;" d="M725.333333 128V682.666667H298.666667v-554.666667l213.333333 93.013333L725.333333 128m0 640a85.333333 85.333333 0 0 0 85.333334-85.333333v-682.666667l-298.666667 128-298.666667-128V682.666667a85.333333 85.333333 0 0 0 85.333334 85.333333h426.666666m-256-170.666667h85.333334v-85.333333h85.333333v-85.333333h-85.333333v-85.333334h-85.333334v85.333334H384V512h85.333333V597.333333z"  horiz-adv-x="1024" />

    
    <glyph glyph-name="bookmark-outline" unicode="&#59078;" d="M725.333333 128l-213.333333 93.013333L298.666667 128V682.666667h426.666666m0 85.333333H298.666667a85.333333 85.333333 0 0 1-85.333334-85.333333v-682.666667l298.666667 128 298.666667-128V682.666667a85.333333 85.333333 0 0 1-85.333334 85.333333z"  horiz-adv-x="1024" />

    
    <glyph glyph-name="bookmark-remove" unicode="&#59079;" d="M725.333333 768a85.333333 85.333333 0 0 0 85.333334-85.333333v-682.666667l-298.666667 128-298.666667-128V682.666667a85.333333 85.333333 0 0 0 85.333334 85.333333h426.666666M348.586667 529.92L451.84 426.666667l-103.253333-102.826667 60.586666-60.586667L512 366.506667l102.826667-103.253334 60.586666 60.586667L572.16 426.666667l103.253333 103.253333-60.586666 60.16L512 487.253333 409.173333 590.08 348.586667 529.92z"  horiz-adv-x="1024" />

    
    <glyph glyph-name="book-minus" unicode="&#59080;" d="M768-42.666667H256a85.333333 85.333333 0 0 0-85.333333 85.333334V725.333333a85.333333 85.333333 0 0 0 85.333333 85.333334h42.666667v-298.666667l106.666666 64L512 512V810.666667h256a85.333333 85.333333 0 0 0 85.333333-85.333334v-682.666666a85.333333 85.333333 0 0 0-85.333333-85.333334m0 170.666667v85.333333h-256v-85.333333h256z"  horiz-adv-x="1024" />

    
    <glyph glyph-name="book-multiple" unicode="&#59081;" d="M810.666667 128H384a85.333333 85.333333 0 0 0-85.333333 85.333333V725.333333a85.333333 85.333333 0 0 0 85.333333 85.333334h42.666667v-213.333334l85.333333 64L597.333333 597.333333V810.666667h213.333334a85.333333 85.333333 0 0 0 85.333333-85.333334v-512a85.333333 85.333333 0 0 0-85.333333-85.333333m-85.333334-85.333333v-85.333334H213.333333a85.333333 85.333333 0 0 0-85.333333 85.333334V640h85.333333v-597.333333h512z"  horiz-adv-x="1024" />

    
    <glyph glyph-name="book-multiple-variant" unicode="&#59082;" d="M810.666667 128H384a85.333333 85.333333 0 0 0-85.333333 85.333333V725.333333a85.333333 85.333333 0 0 0 85.333333 85.333334h426.666667a85.333333 85.333333 0 0 0 85.333333-85.333334v-512a85.333333 85.333333 0 0 0-85.333333-85.333333m-384 384l85.333333 64L597.333333 512V725.333333h-170.666666v-213.333333m298.666666-469.333333v-85.333334H213.333333a85.333333 85.333333 0 0 0-85.333333 85.333334V640h85.333333v-597.333333h512z"  horiz-adv-x="1024" />

    
    <glyph glyph-name="book-open" unicode="&#59083;" d="M554.666667 384h298.666666v-64h-298.666666m0 170.666667h298.666666V426.666667h-298.666666m0-149.333334h298.666666V213.333333h-298.666666m341.333333 512H128a85.333333 85.333333 0 0 1-85.333333-85.333333v-554.666667a85.333333 85.333333 0 0 1 85.333333-85.333333h768a85.333333 85.333333 0 0 1 85.333333 85.333333V640a85.333333 85.333333 0 0 1-85.333333 85.333333m0-640h-384V640h384"  horiz-adv-x="1024" />

    
    <glyph glyph-name="book-open-page-variant" unicode="&#59084;" d="M810.666667 810.666667l-213.333334-192v-469.333334l213.333334 192V810.666667M277.333333 682.666667C194.133333 682.666667 104.533333 665.6 42.666667 618.666667v-625.493334c0-10.666667 10.666667-21.333333 21.333333-21.333333 4.266667 0 6.4 2.986667 10.666667 2.986667 57.6 27.733333 140.8 46.506667 202.666666 46.506666 83.2 0 172.8-17.066667 234.666667-64 57.6 36.266667 162.133333 64 234.666667 64 70.4 0 142.933333-13.226667 202.666666-45.226666 4.266667-2.133333 6.4-1.28 10.666667-1.28 10.666667 0 21.333333 10.666667 21.333333 21.333333V618.666667c-25.6 19.2-53.333333 32-85.333333 42.666666V85.333333c-46.933333 14.933333-98.133333 21.333333-149.333333 21.333334-72.533333 0-177.066667-27.733333-234.666667-64V618.666667C450.133333 665.6 360.533333 682.666667 277.333333 682.666667z"  horiz-adv-x="1024" />

    
    <glyph glyph-name="book-plus" unicode="&#59085;" d="M768-42.666667H256a85.333333 85.333333 0 0 0-85.333333 85.333334V725.333333a85.333333 85.333333 0 0 0 85.333333 85.333334h42.666667v-298.666667l106.666666 64L512 512V810.666667h256a85.333333 85.333333 0 0 0 85.333333-85.333334v-682.666666a85.333333 85.333333 0 0 0-85.333333-85.333334m-170.666667 85.333334h85.333334v85.333333h85.333333v85.333333h-85.333333v85.333334h-85.333334v-85.333334h-85.333333v-85.333333h85.333333v-85.333333z"  horiz-adv-x="1024" />

    
    <glyph glyph-name="book-open-variant" unicode="&#59086;" d="M896 682.666667c-47.36 14.933333-99.413333 21.333333-149.333333 21.333333-83.2 0-172.8-17.066667-234.666667-64-61.866667 46.933333-151.466667 64-234.666667 64-83.2 0-172.8-17.066667-234.666666-64v-625.066667c0-10.666667 10.666667-21.333333 21.333333-21.333333 4.266667 0 6.4 2.133333 10.666667 2.133333C132.266667 23.466667 215.466667 42.666667 277.333333 42.666667c83.2 0 172.8-17.066667 234.666667-64 57.6 36.266667 162.133333 64 234.666667 64 70.4 0 142.933333-12.8 202.666666-44.8 4.266667-2.133333 6.4-2.133333 10.666667-2.133334 10.666667 0 21.333333 10.666667 21.333333 21.333334V640c-25.6 19.2-53.333333 32-85.333333 42.666667m0-576c-46.933333 14.933333-98.133333 21.333333-149.333333 21.333333-72.533333 0-177.066667-27.733333-234.666667-64V554.666667c57.6 36.266667 162.133333 64 234.666667 64 51.2 0 102.4-6.4 149.333333-21.333334v-490.666666z"  horiz-adv-x="1024" />

    
    <glyph glyph-name="book-variant" unicode="&#59087;" d="M256 725.333333h213.333333v-341.333333l-106.666666 64L256 384M768 810.666667H256a85.333333 85.333333 0 0 1-85.333333-85.333334v-682.666666a85.333333 85.333333 0 0 1 85.333333-85.333334h512a85.333333 85.333333 0 0 1 85.333333 85.333334V725.333333a85.333333 85.333333 0 0 1-85.333333 85.333334z"  horiz-adv-x="1024" />

    
    <glyph glyph-name="border-all" unicode="&#59089;" d="M810.666667 426.666667h-256V682.666667h256m0-597.333334h-256v256h256m-341.333334 85.333334H213.333333V682.666667h256m0-597.333334H213.333333v256h256m-341.333333-341.333333h768V768H128v-768z"  horiz-adv-x="1024" />

    
    <glyph glyph-name="border-bottom" unicode="&#59090;" d="M213.333333 256H128v-85.333333h85.333333m-85.333333-170.666667h768v85.333333H128m85.333333 341.333334H128v-85.333334h85.333333m597.333334 170.666667h85.333333V597.333333h-85.333333m0 85.333334h85.333333V768h-85.333333M213.333333 597.333333H128v-85.333333h85.333333m597.333334-341.333333h85.333333v85.333333h-85.333333m0 85.333333h85.333333v85.333334h-85.333333m-85.333334 341.333333h-85.333333v-85.333333h85.333333m-170.666666 85.333333h-85.333334v-85.333333h85.333334m170.666666-256h-85.333333v-85.333334h85.333333m-170.666666 256h-85.333334v-85.333333h85.333334M213.333333 768H128v-85.333333h85.333333m341.333334-256h-85.333334v-85.333334h85.333334M384 768H298.666667v-85.333333h85.333333m170.666667-426.666667h-85.333334v-85.333333h85.333334m-170.666667 256H298.666667v-85.333334h85.333333v85.333334z"  horiz-adv-x="1024" />

    
    <glyph glyph-name="border-color" unicode="&#59091;" d="M883.626667 723.626667c16.64 16.64 16.64 44.373333 0 60.16L783.786667 883.626667C768 900.266667 740.266667 900.266667 723.626667 883.626667L640 800 800 640m-42.666667-42.666667L597.333333 757.333333l-426.666666-426.666666V170.666667h160l426.666666 426.666666z"  horiz-adv-x="1024" />

    
    <glyph glyph-name="border-horizontal" unicode="&#59092;" d="M810.666667 0h85.333333v85.333333h-85.333333m-170.666667-85.333333h85.333333v85.333333h-85.333333m-170.666667 85.333334h85.333334v85.333333h-85.333334m341.333334 256h85.333333V597.333333h-85.333333m0 85.333334h85.333333V768h-85.333333M128 341.333333h768v85.333334H128m341.333333-426.666667h85.333334v85.333333h-85.333334m341.333334 85.333334h85.333333v85.333333h-85.333333M554.666667 768h-85.333334v-85.333333h85.333334m0-85.333334h-85.333334v-85.333333h85.333334m170.666666 256h-85.333333v-85.333333h85.333333M384 768H298.666667v-85.333333h85.333333M213.333333 768H128v-85.333333h85.333333m85.333334-682.666667h85.333333v85.333333H298.666667m-170.666667 85.333334h85.333333v85.333333H128m85.333333 341.333333H128v-85.333333h85.333333M128 0h85.333333v85.333333H128v-85.333333z"  horiz-adv-x="1024" />

    
    <glyph glyph-name="border-inside" unicode="&#59093;" d="M810.666667 170.666667h85.333333v85.333333h-85.333333m0-256h85.333333v85.333333h-85.333333M554.666667 768h-85.333334v-341.333333H128v-85.333334h341.333333v-341.333333h85.333334v341.333333h341.333333v85.333334h-341.333333m85.333333-426.666667h85.333333v85.333333h-85.333333m170.666667 597.333334h85.333333V768h-85.333333m0-256h85.333333V597.333333h-85.333333m-85.333334 170.666667h-85.333333v-85.333333h85.333333M213.333333 768H128v-85.333333h85.333333m170.666667 85.333333H298.666667v-85.333333h85.333333M128 170.666667h85.333333v85.333333H128m85.333333 341.333333H128v-85.333333h85.333333m85.333334-512h85.333333v85.333333H298.666667m-170.666667-85.333333h85.333333v85.333333H128v-85.333333z"  horiz-adv-x="1024" />

    
    <glyph glyph-name="border-none" unicode="&#59094;" d="M640 682.666667h85.333333V768h-85.333333m0-426.666667h85.333333v85.333334h-85.333333m0-426.666667h85.333333v85.333333h-85.333333M469.333333 682.666667h85.333334V768h-85.333334m341.333334-85.333333h85.333333V768h-85.333333m-341.333334-256h85.333334V597.333333h-85.333334m341.333334-85.333333h85.333333V597.333333h-85.333333m0-597.333333h85.333333v85.333333h-85.333333m0 256h85.333333v85.333334h-85.333333m0-256h85.333333v85.333333h-85.333333m-341.333334 85.333333h85.333334v85.333334h-85.333334M128 682.666667h85.333333V768H128m0-256h85.333333V597.333333H128m0-256h85.333333v85.333334H128m0-256h85.333333v85.333333H128m0-256h85.333333v85.333333H128m341.333333-85.333333h85.333334v85.333333h-85.333334m0 85.333334h85.333334v85.333333h-85.333334m-170.666666-256h85.333333v85.333333H298.666667m0 256h85.333333v85.333334H298.666667m0 256h85.333333V768H298.666667v-85.333333z"  horiz-adv-x="1024" />

    
    <glyph glyph-name="border-left" unicode="&#59095;" d="M640 682.666667h85.333333V768h-85.333333m0-426.666667h85.333333v85.333334h-85.333333m170.666667-426.666667h85.333333v85.333333h-85.333333m0 256h85.333333v85.333334h-85.333333m0 256h85.333333V768h-85.333333m0-597.333333h85.333333v85.333333h-85.333333m-170.666667-256h85.333333v85.333333h-85.333333m170.666667 426.666667h85.333333V597.333333h-85.333333M128 0h85.333333V768H128m170.666667-426.666667h85.333333v85.333334H298.666667m0 256h85.333333V768H298.666667m0-768h85.333333v85.333333H298.666667m170.666666 256h85.333334v85.333334h-85.333334m0 85.333333h85.333334V597.333333h-85.333334m0 85.333334h85.333334V768h-85.333334m0-597.333333h85.333334v85.333333h-85.333334m0-256h85.333334v85.333333h-85.333334v-85.333333z"  horiz-adv-x="1024" />

    
    <glyph glyph-name="border-outside" unicode="&#59096;" d="M384 426.666667H298.666667v-85.333334h85.333333m170.666667-85.333333h-85.333334v-85.333333h85.333334m256-85.333334H213.333333V682.666667h597.333334M128 0h768V768H128m597.333333-341.333333h-85.333333v-85.333334h85.333333m-170.666666 85.333334h-85.333334v-85.333334h85.333334m0 256h-85.333334v-85.333333h85.333334V597.333333z"  horiz-adv-x="1024" />

    
    <glyph glyph-name="border-right" unicode="&#59097;" d="M469.333333 512h85.333334V597.333333h-85.333334m0 85.333334h85.333334V768h-85.333334m0-426.666667h85.333334v85.333334h-85.333334m170.666667 256h85.333333V768h-85.333333m0-768h85.333333v85.333333h-85.333333m170.666667-85.333333h85.333333V768h-85.333333m-170.666667-426.666667h85.333333v85.333334h-85.333333m-170.666667-256h85.333334v85.333333h-85.333334M128 512h85.333333V597.333333H128m0-426.666666h85.333333v85.333333H128m0 85.333333h85.333333v85.333334H128m341.333333-426.666667h85.333334v85.333333h-85.333334m-341.333333-85.333333h85.333333v85.333333H128m170.666667 256h85.333333v85.333334H298.666667m0 256h85.333333V768H298.666667M128 682.666667h85.333333V768H128m170.666667-768h85.333333v85.333333H298.666667v-85.333333z"  horiz-adv-x="1024" />

    
    </font>
</defs>
</svg>
